<svg xmlns="http://www.w3.org/2000/svg" width="1024" height="1024" viewBox="0 0 1024 1024">
<g>
<path d="M 562.00 918.57 C549.27,920.12 493.95,921.40 483.50,920.40 C481.30,920.19 474.33,919.53 468.00,918.93 C411.03,913.57 348.04,892.64 295.96,861.77 C242.18,829.89 193.95,783.94 160.77,733.00 C121.29,672.36 98.09,603.86 93.05,533.00 C86.47,440.51 112.97,344.99 166.30,269.00 C195.21,227.80 234.60,189.50 276.50,161.84 C305.10,142.96 341.34,125.49 374.92,114.38 C462.76,85.33 562.00,85.20 649.00,114.03 C725.71,139.44 792.18,185.43 841.90,247.50 C911.39,334.24 942.29,444.27 928.49,555.78 C918.88,633.41 888.73,704.67 839.14,767.00 C829.27,779.41 794.37,814.31 781.00,825.15 C761.90,840.62 743.97,853.14 724.65,864.46 C711.81,871.99 681.56,886.59 667.00,892.28 C634.79,904.89 597.19,914.30 562.00,918.57 ZM 483.02 900.91 C498.66,902.11 527.83,902.14 543.05,900.97 C665.56,891.54 777.55,826.68 844.68,726.27 C880.00,673.44 900.35,618.91 909.14,553.50 C912.23,530.54 912.53,478.24 909.70,457.00 C896.30,356.46 851.73,273.29 776.00,207.54 C725.70,163.88 658.74,131.87 591.00,119.12 C564.31,114.10 547.11,112.66 513.50,112.61 C480.34,112.56 467.92,113.49 441.50,118.00 C364.77,131.11 293.52,165.39 239.50,215.20 C168.48,280.67 126.09,363.61 114.36,460.00 C111.88,480.34 111.87,527.67 114.34,548.00 C120.16,595.98 129.21,628.85 147.86,669.80 C186.00,753.54 254.80,822.82 340.06,863.35 C383.85,884.17 433.01,897.08 483.02,900.91 ZM 441.54 793.06 C426.33,797.28 412.26,795.93 398.10,788.92 C374.06,777.01 360.65,749.68 366.12,723.80 C369.15,709.50 379.79,694.14 391.44,687.29 C393.27,686.20 393.01,686.07 389.00,686.02 C361.23,685.69 338.59,663.60 338.76,637.00 C338.88,619.78 348.96,603.13 364.17,595.06 L 368.69 592.67 L 364.76 577.08 C359.62,556.70 348.63,510.94 340.00,474.00 C336.22,457.77 329.69,429.88 325.49,412.00 C321.30,394.12 315.89,370.87 313.48,360.31 C311.07,349.76 308.51,340.20 307.81,339.06 C304.85,334.32 302.33,334.00 268.52,334.00 L 236.85 334.00 L 233.92 331.08 C229.78,326.93 229.80,321.04 233.99,316.85 L 236.99 313.86 L 271.24 314.18 C305.26,314.50 305.54,314.52 310.47,316.95 C316.88,320.10 323.60,326.85 326.25,332.80 C327.40,335.39 330.65,347.85 333.47,360.50 L 338.59 383.50 L 353.15 383.78 L 367.71 384.05 L 368.39 375.05 C369.78,356.57 374.35,345.16 389.34,322.64 C394.05,315.57 399.06,306.77 400.46,303.09 C403.20,295.92 405.95,284.27 405.98,279.70 C406.01,275.08 408.58,271.39 412.98,269.62 C416.30,268.30 421.20,267.99 439.77,267.96 L 462.50 267.91 L 458.13 264.08 C455.73,261.97 451.25,258.72 448.18,256.87 C439.16,251.42 436.00,247.89 436.00,243.23 C436.00,236.19 442.24,231.59 449.38,233.38 C454.87,234.76 473.73,251.26 485.26,264.77 L 488.02 268.00 L 501.26 268.01 C508.54,268.02 515.51,268.30 516.74,268.63 C520.42,269.61 522.79,274.79 523.99,284.43 C525.58,297.19 529.59,306.57 540.57,323.15 C545.79,331.04 551.37,340.20 552.97,343.50 C557.22,352.30 561.02,366.34 561.70,375.70 C562.41,385.56 564.05,387.11 567.01,380.73 C568.09,378.40 572.16,368.40 576.05,358.50 C589.14,325.19 606.13,293.68 623.49,270.50 C636.64,252.94 662.15,227.84 678.65,216.22 C683.01,213.16 689.88,213.17 692.75,216.25 C698.42,222.32 696.54,227.85 686.15,235.67 C654.83,259.22 635.62,282.07 614.40,321.00 C604.38,339.39 586.16,382.82 587.78,384.45 C588.09,384.75 629.43,385.00 679.67,385.00 C769.27,385.00 771.04,385.04 772.97,386.97 C775.70,389.70 776.46,393.50 775.27,398.38 C774.72,400.64 770.41,416.45 765.70,433.50 C760.99,450.55 750.56,488.80 742.52,518.50 C733.37,552.35 726.76,574.89 724.82,578.91 C718.61,591.74 703.24,603.36 688.26,606.53 C682.57,607.74 657.99,607.97 532.93,607.98 C523.01,607.98 513.72,607.98 505.03,607.98 C387.55,607.97 378.22,607.97 372.23,612.44 C371.27,613.16 370.39,613.99 369.18,614.96 C358.86,623.11 355.13,637.30 360.36,648.52 C363.48,655.23 371.67,662.53 378.28,664.49 C382.72,665.81 403.58,666.00 543.26,666.00 L 703.15 666.00 L 706.08 668.92 C709.45,672.30 709.98,677.16 707.37,680.88 C704.32,685.23 700.42,686.00 681.38,686.00 L 663.70 686.00 L 667.60 688.83 C674.13,693.57 681.74,702.70 685.51,710.32 C704.84,749.44 675.53,795.56 631.50,795.32 C591.24,795.09 562.20,754.68 575.31,717.12 C579.17,706.07 586.18,696.68 597.00,688.06 L 599.50 686.07 L 528.79 686.03 L 458.09 686.00 L 466.39 694.25 C475.49,703.28 479.71,710.51 482.60,721.99 C484.83,730.83 484.07,747.06 481.02,755.72 C474.86,773.24 459.03,788.21 441.54,793.06 ZM 383.18 571.25 L 387.28 588.00 L 534.92 588.00 C541.05,588.00 546.94,588.00 552.59,588.00 C679.83,588.01 688.63,588.01 694.85,584.00 C695.58,583.53 696.29,583.00 697.15,582.40 C704.14,577.56 707.53,571.83 711.02,559.00 C712.74,552.67 715.21,543.67 716.52,539.00 C717.83,534.33 726.38,502.83 735.53,469.00 C744.67,435.17 752.37,406.71 752.64,405.75 C753.11,404.09 742.91,404.00 548.57,404.00 C380.40,404.00 344.00,404.23 344.00,405.31 C344.00,407.85 366.79,504.36 383.18,571.25 ZM 387.34 383.46 C387.87,384.83 396.48,385.00 465.47,385.00 L 543.00 385.00 L 543.00 381.46 C543.00,368.28 535.46,348.32 525.73,335.75 L 522.83 332.00 L 407.16 332.00 L 403.58 336.18 C399.40,341.06 391.88,356.10 389.67,364.00 C387.80,370.65 386.53,381.33 387.34,383.46 ZM 619.84 774.08 C631.32,777.75 644.55,775.85 654.33,769.12 C679.34,751.91 676.98,714.17 650.04,700.52 C630.10,690.42 604.78,699.31 595.18,719.78 C592.81,724.85 592.50,726.70 592.50,736.00 C592.50,745.30 592.81,747.15 595.18,752.22 C598.12,758.49 605.34,766.81 610.73,770.14 C612.62,771.31 616.72,773.08 619.84,774.08 ZM 412.84 774.14 C419.05,776.19 431.32,776.16 438.18,774.07 C444.29,772.20 453.70,764.53 457.97,757.93 C467.07,743.84 466.53,725.72 456.61,712.27 C438.68,687.95 401.15,692.12 388.14,719.88 C385.79,724.88 385.50,726.70 385.50,736.50 C385.50,749.53 387.23,754.14 395.36,762.77 C401.28,769.06 405.25,771.63 412.84,774.14 ZM 418.79 312.45 C419.09,312.75 439.96,313.00 465.17,313.00 C498.55,313.00 511.00,312.69 511.00,311.87 C511.00,311.25 509.93,307.76 508.63,304.12 C507.33,300.48 505.95,295.36 505.57,292.75 L 504.88 288.00 L 424.23 288.00 L 423.52 292.75 C423.13,295.36 421.78,300.74 420.53,304.70 C419.27,308.67 418.49,312.15 418.79,312.45 Z" fill="rgb(106,184,177)"/>
<path d="M 0.00 512.00 L 0.00 0.00 L 512.00 0.00 L 1024.00 0.00 L 1024.00 512.00 L 1024.00 1024.00 L 512.00 1024.00 L 0.00 1024.00 L 0.00 512.00 ZM 562.00 918.57 C597.19,914.30 634.79,904.89 667.00,892.28 C681.56,886.59 711.81,871.99 724.65,864.46 C743.97,853.14 761.90,840.62 781.00,825.15 C794.37,814.31 829.27,779.41 839.14,767.00 C888.73,704.67 918.88,633.41 928.49,555.78 C942.29,444.27 911.39,334.24 841.90,247.50 C792.18,185.43 725.71,139.44 649.00,114.03 C562.00,85.20 462.76,85.33 374.92,114.38 C341.34,125.49 305.10,142.96 276.50,161.84 C234.60,189.50 195.21,227.80 166.30,269.00 C112.97,344.99 86.47,440.51 93.05,533.00 C98.09,603.86 121.29,672.36 160.77,733.00 C193.95,783.94 242.18,829.89 295.96,861.77 C348.04,892.64 411.03,913.57 468.00,918.93 C474.33,919.53 481.30,920.19 483.50,920.40 C493.95,921.40 549.27,920.12 562.00,918.57 ZM 483.02 900.91 C433.01,897.08 383.85,884.17 340.06,863.35 C254.80,822.82 186.00,753.54 147.86,669.80 C129.21,628.85 120.16,595.98 114.34,548.00 C111.87,527.67 111.88,480.34 114.36,460.00 C126.09,363.61 168.48,280.67 239.50,215.20 C293.52,165.39 364.77,131.11 441.50,118.00 C467.92,113.49 480.34,112.56 513.50,112.61 C547.11,112.66 564.31,114.10 591.00,119.12 C658.74,131.87 725.70,163.88 776.00,207.54 C851.73,273.29 896.30,356.46 909.70,457.00 C912.53,478.24 912.23,530.54 909.14,553.50 C900.35,618.91 880.00,673.44 844.68,726.27 C777.55,826.68 665.56,891.54 543.05,900.97 C527.83,902.14 498.66,902.11 483.02,900.91 ZM 441.54 793.06 C459.03,788.21 474.86,773.24 481.02,755.72 C484.07,747.06 484.83,730.83 482.60,721.99 C479.71,710.51 475.49,703.28 466.39,694.25 L 458.09 686.00 L 528.79 686.03 L 599.50 686.07 L 597.00 688.06 C586.18,696.68 579.17,706.07 575.31,717.12 C562.20,754.68 591.24,795.09 631.50,795.32 C675.53,795.56 704.84,749.44 685.51,710.32 C681.74,702.70 674.13,693.57 667.60,688.83 L 663.70 686.00 L 681.38 686.00 C700.42,686.00 704.32,685.23 707.37,680.88 C709.98,677.16 709.45,672.30 706.08,668.92 L 703.15 666.00 L 543.26 666.00 C403.58,666.00 382.72,665.81 378.28,664.49 C371.67,662.53 363.48,655.23 360.36,648.52 C355.13,637.30 358.86,623.11 369.18,614.96 C378.57,607.53 367.46,608.00 532.93,607.98 C657.99,607.97 682.57,607.74 688.26,606.53 C703.24,603.36 718.61,591.74 724.82,578.91 C726.76,574.89 733.37,552.35 742.52,518.50 C750.56,488.80 760.99,450.55 765.70,433.50 C770.41,416.45 774.72,400.64 775.27,398.38 C776.46,393.50 775.70,389.70 772.97,386.97 C771.04,385.04 769.27,385.00 679.67,385.00 C629.43,385.00 588.09,384.75 587.78,384.45 C586.16,382.82 604.38,339.39 614.40,321.00 C635.62,282.07 654.83,259.22 686.15,235.67 C696.54,227.85 698.42,222.32 692.75,216.25 C689.88,213.17 683.01,213.16 678.65,216.22 C662.15,227.84 636.64,252.94 623.49,270.50 C606.13,293.68 589.14,325.19 576.05,358.50 C572.16,368.40 568.09,378.40 567.01,380.73 C564.05,387.11 562.41,385.56 561.70,375.70 C561.02,366.34 557.22,352.30 552.97,343.50 C551.37,340.20 545.79,331.04 540.57,323.15 C529.59,306.57 525.58,297.19 523.99,284.43 C522.79,274.79 520.42,269.61 516.74,268.63 C515.51,268.30 508.54,268.02 501.26,268.01 L 488.02 268.00 L 485.26 264.77 C473.73,251.26 454.87,234.76 449.38,233.38 C442.24,231.59 436.00,236.19 436.00,243.23 C436.00,247.89 439.16,251.42 448.18,256.87 C451.25,258.72 455.73,261.97 458.13,264.08 L 462.50 267.91 L 439.77 267.96 C421.20,267.99 416.30,268.30 412.98,269.62 C408.58,271.39 406.01,275.08 405.98,279.70 C405.95,284.27 403.20,295.92 400.46,303.09 C399.06,306.77 394.05,315.57 389.34,322.64 C374.35,345.16 369.78,356.57 368.39,375.05 L 367.71 384.05 L 353.15 383.78 L 338.59 383.50 L 333.47 360.50 C330.65,347.85 327.40,335.39 326.25,332.80 C323.60,326.85 316.88,320.10 310.47,316.95 C305.54,314.52 305.26,314.50 271.24,314.18 L 236.99 313.86 L 233.99 316.85 C229.80,321.04 229.78,326.93 233.92,331.08 L 236.85 334.00 L 268.52 334.00 C302.33,334.00 304.85,334.32 307.81,339.06 C308.51,340.20 311.07,349.76 313.48,360.31 C315.89,370.87 321.30,394.12 325.49,412.00 C329.69,429.88 336.22,457.77 340.00,474.00 C348.63,510.94 359.62,556.70 364.76,577.08 L 368.69 592.67 L 364.17 595.06 C348.96,603.13 338.88,619.78 338.76,637.00 C338.59,663.60 361.23,685.69 389.00,686.02 C393.01,686.07 393.27,686.20 391.44,687.29 C379.79,694.14 369.15,709.50 366.12,723.80 C360.65,749.68 374.06,777.01 398.10,788.92 C412.26,795.93 426.33,797.28 441.54,793.06 ZM 412.84 774.14 C405.25,771.63 401.28,769.06 395.36,762.77 C387.23,754.14 385.50,749.53 385.50,736.50 C385.50,726.70 385.79,724.88 388.14,719.88 C401.15,692.12 438.68,687.95 456.61,712.27 C466.53,725.72 467.07,743.84 457.97,757.93 C453.70,764.53 444.29,772.20 438.18,774.07 C431.32,776.16 419.05,776.19 412.84,774.14 ZM 619.84 774.08 C616.72,773.08 612.62,771.31 610.73,770.14 C605.34,766.81 598.12,758.49 595.18,752.22 C592.81,747.15 592.50,745.30 592.50,736.00 C592.50,726.70 592.81,724.85 595.18,719.78 C604.78,699.31 630.10,690.42 650.04,700.52 C676.98,714.17 679.34,751.91 654.33,769.12 C644.55,775.85 631.32,777.75 619.84,774.08 ZM 383.18 571.25 C366.79,504.36 344.00,407.85 344.00,405.31 C344.00,404.23 380.40,404.00 548.57,404.00 C742.91,404.00 753.11,404.09 752.64,405.75 C752.37,406.71 744.67,435.17 735.53,469.00 C726.38,502.83 717.83,534.33 716.52,539.00 C715.21,543.67 712.74,552.67 711.02,559.00 C707.53,571.83 704.14,577.56 697.15,582.40 C688.73,588.23 695.42,588.00 534.92,588.00 L 387.28 588.00 L 383.18 571.25 ZM 387.34 383.46 C386.53,381.33 387.80,370.65 389.67,364.00 C391.88,356.10 399.40,341.06 403.58,336.18 L 407.16 332.00 L 464.99 332.00 L 522.83 332.00 L 525.73 335.75 C535.46,348.32 543.00,368.28 543.00,381.46 L 543.00 385.00 L 465.47 385.00 C396.48,385.00 387.87,384.83 387.34,383.46 ZM 418.79 312.45 C418.49,312.15 419.27,308.67 420.53,304.70 C421.78,300.74 423.13,295.36 423.52,292.75 L 424.23 288.00 L 464.55 288.00 L 504.88 288.00 L 505.57 292.75 C505.95,295.36 507.33,300.48 508.63,304.12 C509.93,307.76 511.00,311.25 511.00,311.87 C511.00,312.69 498.55,313.00 465.17,313.00 C439.96,313.00 419.09,312.75 418.79,312.45 Z" fill="rgb(254,250,244)"/>
</g>
</svg>