<svg version="1.2" xmlns="http://www.w3.org/2000/svg" viewBox="0 0 1024 1024" width="1024" height="1024">
	<style>
		.s0 { fill: #fefefe } 
		.s1 { fill: #4f3316 } 
		.s2 { fill: #a1b159 } 
		.s3 { fill: #6f6443 } 
		.s4 { fill: #64cdb0 } 
		.s5 { fill: #4cb99f } 
		.s6 { opacity: 1;fill: #3aab93 } 
		.s7 { fill: #d4f1df } 
		.s8 { fill: #2a9d84 } 
		.s9 { fill: #c6ebd9 } 
		.s10 { fill: #f4bf67 } 
		.s11 { fill: #f1f8f1 } 
		.s12 { fill: #9ed9ba } 
		.s13 { fill: #efc58c } 
		.s14 { fill: #cd8542 } 
		.s15 { fill: #dc9a5b } 
		.s16 { fill: #bfcc79 } 
		.s17 { fill: #e1a96c } 
		.s18 { fill: #247e65 } 
		.s19 { fill: #fbe7c1 } 
	</style>
	<g id="Layer 1">
		<g id="Background">
			<path id="Path 0" fill-rule="evenodd" class="s0" d="m0 512v512h1024v-1024h-1024z"/>
			<path id="Path 1" fill-rule="evenodd" class="s1" d="m804 46.83c-3.58 2.1-11.23 6.75-17 10.33-5.77 3.57-14.67 9.16-19.76 12.42-5.09 3.26-21.51 14.02-36.5 23.92-24.66 16.3-27.46 18.43-29.55 22.5-1.69 3.31-2.16 5.49-1.75 8.25 0.52 3.48 0.04 4.4-6.76 13-4.03 5.09-11.51 15.1-16.62 22.25-5.12 7.15-13 18.63-17.52 25.5-4.52 6.88-11.16 17.22-14.77 23-3.61 5.78-10.36 17.03-15 25-4.64 7.97-11.85 20.8-16 28.5-4.16 7.7-12.15 23-17.75 34l-10.18 20c-8.01-1.13-19.45-2.14-30.59-2.98-11.94-0.9-33.08-1.52-51.5-1.52-18.41 0-39.47 0.62-51.25 1.52-11 0.83-24.05 1.97-29 2.52-4.95 0.56-13.73 1.7-19.5 2.54-5.77 0.83-17.48 3.06-26 4.95-8.52 1.89-21.13 5.29-28 7.56-6.87 2.27-15.65 5.66-19.5 7.53-3.89 1.88-9.22 5.58-12 8.3-3.06 3.01-7.6 9.51-11.7 16.75-3.68 6.5-10.05 18.81-14.15 27.33-4.1 8.52-8.45 18.88-9.68 23-1.99 6.68-2.1 8.1-1.04 13 0.65 3.02 2.15 6.85 3.33 8.5 1.18 1.65 2.62 3.28 3.19 3.62 0.62 0.37-1.06 3.27-4.06 7-2.81 3.51-9.39 12.68-14.63 20.38-5.23 7.7-13.44 20.52-18.25 28.5-4.8 7.98-13.59 24.4-19.51 36.5-5.93 12.1-12.47 26.27-14.54 31.5-2.07 5.23-5.52 14.67-7.68 21-2.15 6.33-5.46 17.8-7.35 25.5-1.9 7.7-4.21 18.95-5.15 25-1.19 7.67-1.69 16.9-1.65 30.5 0.03 15.66 0.48 21.87 2.24 31.5 1.22 6.6 4.01 17.4 6.22 24 2.2 6.6 6.56 17.17 9.68 23.5 3.12 6.33 9 16.45 13.06 22.5 4.06 6.05 10.22 14.38 13.68 18.5 3.46 4.13 10.5 11.57 15.64 16.54 5.14 4.98 11.6 10.91 14.35 13.19l5 4.14c-12.41 12.9-17.42 19.32-19.16 22.63-1.74 3.3-3.93 8.7-4.88 12-1.23 4.32-1.6 8.51-1.32 15 0.33 7.63 0.88 9.99 3.58 15.5 1.76 3.58 5.16 8.75 7.56 11.5 2.4 2.75 7.6 7.36 11.54 10.25 3.95 2.89 11.34 7.47 16.43 10.18 5.09 2.71 14.88 7.24 21.75 10.06 6.88 2.82 20.82 7.52 31 10.46 10.18 2.93 25.93 6.94 35 8.92 9.07 1.98 22.13 4.48 29 5.56 6.88 1.08 20.38 2.86 30 3.96 9.63 1.1 26.95 2.53 38.5 3.19 13.1 0.75 32.85 0.99 52.5 0.63 17.33-0.32 39.38-1.27 49-2.1 9.63-0.84 22.67-2.25 29-3.14 6.33-0.89 18.81-2.93 27.75-4.54 8.94-1.61 24.01-4.93 33.5-7.38 9.49-2.45 22.09-6.05 28-8 5.91-1.95 15.25-5.35 20.75-7.55 5.5-2.2 13.71-5.86 18.25-8.13 4.54-2.27 12.26-6.88 17.17-10.25 4.9-3.36 11.11-8.6 13.8-11.62 2.7-3.02 6.33-8.42 8.09-12 3.05-6.21 3.19-7.03 3.19-18.5 0-10.78-0.26-12.56-2.56-17.5-1.41-3.02-4.45-8.31-6.75-11.75-2.31-3.44-6.84-8.84-10.07-12l-5.89-5.75c9.51-7.63 15.57-13.03 19.61-16.92 4.04-3.89 10.58-10.91 14.54-15.58 3.96-4.67 8.83-10.75 10.81-13.5 1.99-2.75 6.25-9.5 9.48-15 3.23-5.5 7.5-13.6 9.49-18 1.99-4.4 5-12.05 6.7-17 1.69-4.95 3.98-13.27 5.07-18.5 1.1-5.23 2.52-14 3.17-19.5 0.71-6.05 0.96-16.72 0.63-27-0.37-11.67-1.33-21.54-3.09-31.5-1.4-7.98-4.17-20.12-6.15-27-1.98-6.87-4.87-16.1-6.43-20.5-1.55-4.4-4.94-13.17-7.53-19.5-2.59-6.33-8.9-20.05-14.01-30.5-5.11-10.45-12.56-24.4-16.54-31-3.99-6.6-11.42-18.3-16.51-26-5.1-7.7-12.24-17.94-15.87-22.75l-6.6-8.75c3.1-3.1 4.76-5.46 5.68-7.25 1.04-2.02 1.7-5.72 1.73-9.75 0.04-4.86-0.68-8.39-2.83-14-1.59-4.12-7.91-17.4-14.04-29.5-6.13-12.1-12.53-24.02-14.23-26.5-1.69-2.48-4.82-5.9-6.94-7.6-2.13-1.71-7.02-4.69-10.87-6.63-3.85-1.94-11.95-5.1-18-7.03-6.05-1.93-13.36-4.01-16.25-4.62-2.94-0.63-5.25-1.67-5.25-2.37 0-0.69 5.45-11.6 12.11-24.25 6.65-12.65 15.5-29.07 19.65-36.5 4.16-7.43 12.29-21.37 18.08-31 5.79-9.62 15.97-26.05 22.63-36.5 6.67-10.45 14.57-22.71 17.57-27.25l5.46-8.24c6.2 0.91 9.91 0.68 12.25 0.08 2.39-0.61 6.05-2.73 8.37-4.84 2.27-2.06 4.97-5.44 6-7.5 1.03-2.06 1.86-4.76 1.84-6-0.02-1.67 4.8-6.62 18.75-19.25 10.34-9.35 25.31-23 33.29-30.35 7.98-7.34 15.29-14.77 16.25-16.5 0.97-1.73 1.76-4.95 1.76-7.15 0-2.2-0.77-5.12-1.72-6.5-0.94-1.37-2.85-3.4-4.23-4.5-1.39-1.1-5-3.61-8.04-5.58-3.04-1.97-7.77-4.78-10.52-6.25-3.29-1.76-6.54-2.67-9.5-2.68-3.42 0-6.06 0.92-11 3.84z"/>
			<path id="Path 2" fill-rule="evenodd" class="s2" d="m506 958.74c4.68 0.19 12.77 0.19 18 0.01 5.23-0.19 1.4-0.34-8.5-0.34-9.9 0-14.18 0.15-9.5 0.33z"/>
			<path id="Path 3" fill-rule="evenodd" class="s3" d="m499 310.74c4.68 0.19 11.88 0.19 16 0 4.13-0.18 0.3-0.34-8.5-0.34-8.8 0.01-12.18 0.16-7.5 0.34z"/>
			<path id="Path 4" fill-rule="evenodd" class="s4" d="m795.8 65.22c0.11 0.43-0.36 0.44-1.04 0.03q-1.23-0.74-0.5 0.5c0.43 0.72 0.21 1.3-0.51 1.37-0.69 0.06-1.59 0.06-2 0-0.41-0.07-0.75 0.33-0.75 0.88 0 0.55-0.45 0.78-1 0.5-0.55-0.28-1.22 0.17-1.5 1-0.27 0.83-0.95 1.28-1.5 1-0.55-0.28-1.76 0.29-2.68 1.25-0.92 0.96-2.08 1.75-2.58 1.75-0.5 0-1.43 0.78-2.07 1.74-0.64 0.95-1.52 1.4-1.95 1-0.43-0.41-0.76-0.18-0.75 0.51 0.02 0.69-0.42 1.03-0.97 0.75-0.55-0.28-1-0.05-1 0.5 0 0.55-0.67 1-1.5 1-0.82 0-1.72 0.67-2 1.5-0.27 0.83-0.84 1.29-1.25 1.04-0.41-0.25-2.21 0.88-4 2.5-1.79 1.63-3.7 2.74-4.25 2.46-0.55-0.28-1-0.05-1 0.5 0 0.55-1.46 1.88-3.25 2.95-1.79 1.07-3.7 1.67-4.25 1.34-0.55-0.34-0.66-0.2-0.25 0.3 0.41 0.5-0.15 1.47-1.25 2.16-1.1 0.69-2.56 0.91-3.24 0.5q-1.23-0.74-0.5 0.5c0.46 0.78-0.29 1.94-2.01 3.09-1.51 1.01-3.65 2.14-4.75 2.51-1.1 0.37-1.67 1-1.26 1.41 0.41 0.41 0.3 1.3-0.25 1.99-0.67 0.85-0.59 1.49 0.25 2q1.23 0.74 0.5-0.5c-0.41-0.69-0.29-1.47 0.26-1.75 0.55-0.28 1.23-0.05 1.5 0.5 0.28 0.55 1.06 0.71 1.75 0.35q1.23-0.63 0.25 0.31c-0.55 0.52-2.69 2.16-4.75 3.65-2.08 1.49-3.97 2.25-4.25 1.69-0.27-0.55 0.4-1.22 1.5-1.5 1.1-0.28 1.84-1.06 1.65-1.75-0.19-0.69-0.87-1.36-1.5-1.5-0.63-0.14-1.15 0.42-1.15 1.25 0 0.83-0.45 1.28-1 1-0.55-0.28-0.87 0.06-0.72 0.75 0.15 0.69 0.71 1.92 1.25 2.73 0.77 1.17 0.6 1.32-0.78 0.75-1.29-0.54-1.62-0.34-1.25 0.77 0.41 1.24 0.85 1.28 2.5 0.25 1.11-0.69 2.01-1.59 2-2 0-0.41 0.45-0.75 1-0.75 0.55 0 2.81-1.46 5.02-3.25 2.9-2.34 3.67-3.48 2.75-4.07-0.76-0.48-0.37-0.58 0.98-0.25 1.24 0.32 2.48 0.12 2.75-0.43 0.28-0.55 3.31-2.89 6.75-5.2 3.44-2.31 6.7-4.57 7.25-5.01 0.55-0.45 4.15-3.1 8-5.89 3.85-2.79 7.68-5.48 8.5-5.97 1.33-0.79 1.33-1 0-1.9-0.82-0.55-1.05-1.01-0.5-1.03 0.55-0.02 1.45 0.44 2 1.02 0.69 0.73 2.33-0.36 5.25-3.48 2.34-2.5 4.46-4.43 4.72-4.29 0.25 0.14 1.27-0.43 2.25-1.27 0.98-0.84 2.91-2.31 4.28-3.27l2.5-1.74c-4.58 0.36-5.81 0.82-5.7 1.25zm-93.13 305.88c-1.47 3.24-2.34 6.46-1.93 7.15q0.73 1.24-0.5 0.5c-0.79-0.48-3.35 1.34-6.99 4.95-3.16 3.14-6.42 5.59-7.25 5.46-1.33-0.22-1.33-0.14 0 0.72 1.25 0.8 0.95 1.44-1.76 3.79-1.79 1.56-3.25 3.73-3.23 4.83 0.01 1.1-0.45 2.45-1.03 3-0.58 0.55-1.07 3.48-1.09 6.5-0.02 3.02 0.22 10.79 0.54 17.25 0.31 6.46 0.91 11.75 1.32 11.76 0.41 0 0.63 2.59 0.49 5.75-0.14 3.16-0.82 6.32-1.5 7.03-0.74 0.78-0.82 1.28-0.19 1.25 0.58-0.02 1.6-0.6 2.27-1.29 0.97-1 1.21-1 1.2 0-0.01 0.69-1.14 1.48-2.52 1.75-2.11 0.42-2.3 0.74-1.25 2.04 0.69 0.85 1.7 1.52 2.25 1.49 0.55-0.03 0.33-0.45-0.5-0.92-1.29-0.73-1.25-0.94 0.25-1.48 0.96-0.35 2.31-0.62 3-0.61q1.28 0-0.25 1.09c-1.21 0.87-1.11 0.94 0.5 0.38 1.1-0.38 4.25-1.48 7-2.45 2.75-0.96 8.38-3.24 12.5-5.05 4.13-1.81 9.75-4.66 12.5-6.33 2.75-1.67 6.35-4.15 8-5.51 1.65-1.36 3.88-3.64 4.95-5.06 1.08-1.42 2.29-4.16 2.69-6.09 0.51-2.42 0.17-5.19-1.12-9-1.02-3.02-5.18-12.48-9.25-21-4.07-8.52-8.62-16.85-10.13-18.5-1.5-1.65-2.57-3.45-2.38-4 0.2-0.55-0.61-1.97-1.78-3.15l-2.14-2.15zm-393.67 94.49c-1.37 1.94-3.06 4.18-3.75 4.97-0.69 0.79-1.25 1.66-1.25 1.94 0 0.27-2.81 3.46-6.25 7.09-3.44 3.62-9.05 10.48-12.48 15.25-3.43 4.76-8.24 12.71-10.7 17.66-2.46 4.95-7.58 15.75-11.38 24-3.81 8.25-7.88 17.92-9.05 21.5-1.18 3.57-4.58 16.4-7.55 28.5-2.98 12.1-5.97 26.72-6.64 32.5-0.71 6.17-0.98 15.65-0.65 23 0.31 6.87 1.49 17.56 2.63 23.75 1.14 6.19 3.65 15.75 5.57 21.25 1.93 5.5 3.28 10.9 3 12-0.27 1.1 0.06 2.34 0.73 2.75 0.87 0.53 1.02 0.24 0.5-1-0.44-1.05-0.33-1.55 0.27-1.25 0.55 0.27 1 1.62 1 3 0 1.73-0.38 2.27-1.25 1.76-0.72-0.43-1-0.32-0.67 0.25 0.32 0.54 1.34 2.68 2.25 4.74 0.92 2.06 1.9 3.75 2.17 3.75 0.28 0 0.28-0.68 0-1.5-0.27-0.83-0.16-1.51 0.25-1.53 0.41-0.02 1.31 1.11 2 2.5 0.69 1.39 0.98 3.32 0.66 4.28q-0.61 1.77 0.25 0.44c0.64-1 1.27-0.7 2.59 1.25 1.04 1.51 1.52 3.48 1.19 4.81-0.43 1.69-0.33 1.87 0.39 0.75 0.77-1.21 1.65-0.53 4.54 3.5 1.98 2.75 3.38 5.56 3.11 6.25-0.26 0.69-0.03 1.25 0.52 1.25 0.55 0 1.68 0.67 2.5 1.5 0.83 0.82 1.28 2.17 1 3-0.36 1.09 0.05 1.36 1.5 1 1.4-0.35 2.05 0.03 2.16 1.25 0.09 0.96 0.2 2.26 0.25 2.88 0.05 0.62 0.43 0.95 0.84 0.75 0.41-0.21 0.75 0.07 0.75 0.62 0 0.55 0.56 0.66 1.23 0.25 0.87-0.53 1.02-0.24 0.5 1-0.51 1.23 0.27 2.86 2.63 5.5 1.84 2.06 4.43 4.06 5.75 4.44 1.31 0.37 6.67 2.24 11.89 4.13 5.23 1.9 12.43 4.81 16 6.47 3.58 1.66 12.35 4.73 19.5 6.83 12.43 3.64 13.64 3.8 27.5 3.8 7.98 0 26.2-0.29 40.5-0.65 14.3-0.36 28.25-1.1 31-1.64 2.75-0.55 10.85-1.7 18-2.56 7.15-0.87 17.5-2.23 23-3.03 5.5-0.81 14.28-1.92 19.5-2.47 5.23-0.56 13.33-2.16 18-3.56 4.68-1.4 14.24-3.66 21.25-5.03 7.01-1.36 15.56-2.48 19-2.48 3.44 0 11.88-0.66 18.75-1.47 6.88-0.8 14.98-2.32 18-3.38 3.03-1.05 9.33-3.48 14-5.39 4.68-1.91 12.1-4.42 16.5-5.56 4.4-1.14 10.93-2.81 14.5-3.7 3.58-0.9 11.23-3.61 17-6.03 5.78-2.42 15-6.02 20.5-8 5.5-1.98 17.2-7.24 26-11.69 8.8-4.45 18.7-9.9 22-12.11 3.3-2.22 9.6-6.71 14-10 4.4-3.28 12.42-10.52 17.82-16.07 5.41-5.56 10.58-11.77 11.5-13.81 0.96-2.11 2.31-3.62 3.15-3.5 0.8 0.11 1.58-0.69 1.74-1.79l0.28-2c-1.62 3.71-1.87 3.41-2.56 0-0.45-2.2-0.86-4.45-0.9-5-0.05-0.55-0.83-3.48-1.75-6.5-0.91-3.03-2.24-9.78-2.95-15-0.71-5.23-1.25-12.88-1.19-17 0.06-4.29-0.19-6.43-0.58-5-0.62 2.26-0.75 2.12-1.38-1.5-0.38-2.2-0.95-5.58-1.27-7.5-0.32-1.93-1.66-5.86-2.99-8.75-1.43-3.11-2.19-6.17-1.85-7.5 0.44-1.78 0.34-1.94-0.49-0.75-0.86 1.24-1.05 1.11-1.06-0.75-0.01-1.24-0.47-2.48-1.02-2.75-0.55-0.28-0.77-1.4-0.5-2.5 0.36-1.43-0.72-3.16-3.75-6.05-2.34-2.22-5.49-4.7-7-5.5-2.22-1.17-2.66-1.98-2.29-4.2 0.26-1.51 0.25-2.3-0.02-1.75-0.26 0.55-1.6 0.89-2.96 0.75-1.36-0.14-2.48-0.7-2.48-1.25 0-0.55 0.68-1.23 1.5-1.5 0.83-0.28 1.5-0.95 1.5-1.5 0-0.55-1.01-0.77-2.25-0.49-2.04 0.47-2.61-0.41-6.24-9.75-2.2-5.64-5.51-12.74-7.35-15.76-1.84-3.03-5.17-9.1-7.39-13.5-2.22-4.4-5.63-10.48-7.57-13.5-1.94-3.03-6.38-8.54-9.87-12.25-3.48-3.71-6.33-7.09-6.34-7.5 0-0.41-0.79-0.8-1.75-0.86-0.95-0.07-2.64-0.19-3.74-0.28-1.84-0.16-1.86-0.25-0.25-1.14 0.96-0.53 1.75-1.31 1.75-1.72 0-0.41-1.07-0.75-2.37-0.75-1.43 0-2.22 0.5-2 1.25 0.2 0.69-0.08 1.25-0.63 1.25-0.55 0-1.11-0.46-1.25-1.02-0.16-0.66-2.56-0.48-6.75 0.5-3.57 0.83-11.67 2.68-18 4.1-6.32 1.42-18.02 3.66-26 4.98-7.97 1.32-17.42 2.85-21 3.4-3.57 0.55-13.92 1.58-23 2.27-10.61 0.82-35.41 1.24-69.5 1.2-50.59-0.07-54.11-0.19-77.5-2.77-13.47-1.48-28.55-3.38-33.5-4.22-4.95-0.84-11.7-1.98-15-2.52-3.3-0.55-11.29-2.11-17.75-3.46-6.46-1.35-18.16-4.23-26-6.4-7.84-2.17-18.07-5.32-22.75-7-4.67-1.68-8.72-3.04-9-3.03-0.27 0.01-1.62 1.61-3 3.56z"/>
			<path id="Path 5" fill-rule="evenodd" class="s5" d="m813.31 53.78c-0.98 0.2-1.67 0.9-1.52 1.54 0.14 0.65 0.03 0.84-0.26 0.43-0.29-0.41-1.54 0.14-2.78 1.22-1.24 1.08-2.7 1.69-3.25 1.34-0.55-0.35-0.67-0.22-0.27 0.28 0.41 0.5-0.27 1.71-1.5 2.69-1.23 0.98-2.57 1.77-2.98 1.75-0.41-0.02-0.52 0.42-0.25 0.97 0.28 0.55 0.16 0.99-0.25 0.98-0.41-0.01-1.76 0.89-3 2-1.24 1.11-2.63 1.91-3.1 1.77-0.47-0.14-3.06 2.14-5.75 5.06-3.4 3.68-5.21 4.97-5.9 4.23-0.55-0.59-1.45-1.06-2-1.04-0.55 0.02-0.32 0.48 0.5 1.03 1.33 0.9 1.33 1.11 0 1.9-0.82 0.49-4.65 3.18-8.5 5.97-3.85 2.79-7.45 5.44-8 5.88-0.55 0.44-3.25 2.33-6 4.2-2.75 1.87-8.04 5.79-11.75 8.71-3.71 2.92-7.2 5.31-7.75 5.31-0.55 0-1 0.34-0.99 0.75 0 0.41-1.24 1.48-2.75 2.38l-2.76 1.63c3.88 1.99 7.25 2.47 10 2.35 2.75-0.12 6.24 0.26 7.75 0.84 1.51 0.58 3.31 0.74 4 0.37 0.88-0.48 0.71-0.84-0.6-1.25-1.65-0.51-1.48-0.94 1.5-3.83 1.84-1.79 5.49-4.27 8.1-5.5 2.62-1.23 4.76-2.58 4.75-2.99 0-0.41 0.45-0.75 1-0.75 0.55 0 2.24-0.83 3.75-1.85 1.51-1.02 5-2.68 7.75-3.69 2.75-1.02 6.35-2.82 8-4 1.65-1.19 5.7-3.65 9-5.48 3.3-1.83 7.69-4.59 9.75-6.15 2.16-1.63 4.15-4.2 4.7-6.08 0.52-1.79 1.65-3.59 2.5-4 0.85-0.41 1.55-1.42 1.55-2.25 0-0.83 1.12-2.51 2.48-3.75 1.37-1.24 2.16-2.6 1.75-3.03-0.4-0.43 0.62-0.81 2.27-0.85 2.89-0.07 2.91-0.1 0.5-0.78l-2.5-0.7c3.49-1.08 4.28-1.95 4.01-2.64-0.27-0.69-2.49-2.17-4.94-3.29-2.45-1.13-5.27-1.88-6.26-1.68zm-351.81 281.28c-4.95 0.5-15.75 1.63-24 2.51-8.25 0.87-20.85 2.7-28 4.05-7.15 1.36-16.37 3.36-20.5 4.44-4.12 1.08-11.89 3.43-17.26 5.2-9.43 3.13-9.76 3.34-9.79 6.24-0.03 2.1 0.95 3.97 3.26 6.24 1.81 1.79 5.77 4.14 8.79 5.24 3.03 1.09 6.06 1.99 6.75 2 0.69 0.01 1.25-0.43 1.25-0.98 0-0.55-0.45-1-1-1-0.55 0-1-0.45-1-1 0-0.55 1.35-1 3-1 1.65 0 3.23 0.45 3.5 1 0.28 0.55 1.29 0.99 2.25 0.98 1.51-0.01 1.54-0.16 0.25-1.05-1.07-0.75 0.35-0.87 5-0.44 4.68 0.44 6.86 0.24 7.79-0.69 1.07-1.07 1.29-1.03 1.27 0.2-0.03 1.33 0.07 1.33 0.9 0 0.51-0.82 1.29-1.17 1.73-0.77 0.45 0.4 0.25 1.41-0.44 2.25-0.82 1-2.28 1.35-4.25 1.02-1.65-0.27-3-0.27-3 0 0 0.27 0.68 1.18 1.5 2 0.83 0.82 1.61 1.3 1.75 1.05 0.14-0.24 8.35-1.83 18.25-3.54 9.9-1.7 25.65-3.78 35-4.63 10.67-0.97 29.74-1.61 51.24-1.71 29.37-0.15 34.33-0.38 34.88-1.67 0.36-0.82 0.7-2.63 0.77-4 0.08-1.81 0.73-2.57 2.36-2.75 1.43-0.16 2.71-1.35 3.5-3.25 0.72-1.72 2-3 3-3 0.96 0 1.98 0.9 2.25 2 0.28 1.1 0.95 1.77 1.5 1.5 0.55-0.27 1.02-1.29 1.04-2.25 0.03-0.96 0.7 0.05 1.5 2.25 0.79 2.2 1.34 5.46 1.2 7.25-0.13 1.81-0.8 3.25-1.49 3.25-0.69 0-0.92 0.45-0.51 1 0.4 0.55 1.98 1 3.5 1 2 0 2.94-0.62 3.4-2.25 0.36-1.24 3.06-7.09 6-13l5.36-10.75c-11.24-0.99-15.51-0.99-16.75-0.64-1.36 0.39-2.05 0.24-1.75-0.36 0.3-0.59-2.24-1.21-6.25-1.51-3.71-0.28-22.95-0.7-42.75-0.93-19.8-0.23-40.05 0-45 0.5zm-76 37.03c1.1 0.67 4.03 1.4 6.5 1.62 2.48 0.22 4.28 0.17 4-0.12-0.27-0.29-1.85-0.71-3.5-0.93-1.65-0.23-4.35-0.72-6-1.1-2.65-0.61-2.77-0.55-1 0.53zm-98.2 85.68c-1.62 2.05-6.71 9.35-11.31 16.23-4.59 6.87-10.9 16.77-14.03 22-3.12 5.23-8.44 14.56-11.82 20.75-3.38 6.19-6.14 11.48-6.14 11.75 0 0.27-2.62 5.79-5.83 12.25-3.2 6.46-8.55 18.73-11.89 27.25-3.34 8.52-7.45 20-9.14 25.5-1.7 5.5-4.2 14.95-5.57 21-1.37 6.05-3.21 15.5-4.1 21-1 6.24-1.61 16.21-1.62 26.5-0.01 10.46 0.6 20.53 1.66 27.5 0.92 6.05 2.79 14.83 4.16 19.5 1.36 4.67 3.96 12.33 5.77 17 1.81 4.67 4.98 11.87 7.06 16 2.07 4.12 5.28 9.86 7.13 12.75 1.86 2.89 3.71 5.04 4.12 4.77 0.41-0.26 0.08-1.19-0.75-2.08-1.33-1.42-1.33-1.69 0-2.39 1.14-0.61 1.2-0.95 0.25-1.43-0.69-0.34-1.25-0.39-1.25-0.12 0 0.27-0.67-0.17-1.5-1-0.82-0.83-1.49-2.29-1.47-3.25 0.03-1.43 0.41-1.29 2.05 0.75 1.3 1.62 1.98 1.97 1.95 1-0.04-0.83-1.38-4.2-2.99-7.5-1.61-3.3-3.47-7.35-4.13-9-0.65-1.65-1.24-4.87-1.3-7.15-0.06-2.28 0.23-3.97 0.64-3.75 0.41 0.22 0.74 0.29 0.73 0.15-0.01-0.14-0.9-3.63-1.98-7.75-1.08-4.13-1.96-8.17-1.95-9 0.01-1.11 0.4-0.99 1.5 0.5 1.44 1.94 1.48 1.91 1.47-0.75-0.02-2.49 0.22-2.68 2.61-2 1.93 0.55 3.57 2.59 6.25 7.77 1.99 3.86 5.48 9.71 7.75 13 2.27 3.29 9.13 11.04 15.25 17.23 6.12 6.19 11.68 11.06 12.37 10.83 0.69-0.23 2.49 0.9 4 2.5 1.51 1.61 3.2 2.92 3.75 2.92 0.55 0 3.36 1.91 6.25 4.25 2.89 2.34 5.48 4.56 5.75 4.95 0.28 0.38 3.2 2.75 6.5 5.26 3.3 2.51 10.5 7.55 16 11.2 5.5 3.65 12.93 7.87 16.5 9.37 3.58 1.5 13.25 5.24 21.5 8.3 8.25 3.05 22.43 7.66 31.5 10.23 9.08 2.58 22.13 5.52 29 6.54 6.88 1.02 14.98 1.87 18 1.88 3.03 0.02 9.55 0.69 14.5 1.5 4.95 0.82 10.58 1.97 12.5 2.57 1.93 0.6 5.98 1.46 9 1.91 3.03 0.46 8.65 1.54 12.5 2.41 4.01 0.92 11.59 1.6 17.75 1.61 5.91 0.01 15.14-0.68 20.5-1.55 7.84-1.25 11.32-1.35 17.75-0.49 4.4 0.59 11.49 1.07 15.75 1.07 4.26-0.01 11.01-0.49 15-1.07 3.99-0.59 8.6-1.45 10.25-1.93 1.65-0.48 7.05-2.08 12-3.57 4.95-1.49 9.45-3.06 10-3.49 0.55-0.42 3.7-1.47 7-2.32 3.3-0.85 10.84-3.37 16.75-5.59 5.91-2.22 14.24-5.78 18.5-7.9 4.26-2.13 9.55-4.43 11.75-5.12 2.2-0.7 8.95-3.66 15-6.59 6.05-2.93 15.81-8.39 21.68-12.13 5.87-3.74 14.2-9.24 18.5-12.21 4.3-2.98 10.47-7.7 13.7-10.5 3.23-2.8 8.39-8.47 11.46-12.59 3.07-4.13 5.94-7.61 6.37-7.75 0.44-0.14 0.79-0.7 0.79-1.25 0-0.55 1.5-3.36 3.33-6.25 1.82-2.89 3.98-5.92 4.79-6.75 0.8-0.83 2.12-2.98 2.92-4.79 0.8-1.81 1.69-3.25 1.96-3.21 0.28 0.04 1.14-1.4 1.91-3.21 0.78-1.81 1.97-3.96 2.65-4.79 0.67-0.83 2.14-4.88 3.25-9 1.11-4.13 4.13-13.58 6.71-21 3.55-10.21 4.87-15.7 5.43-22.5 0.41-4.95 1.03-9.56 1.39-10.25 0.36-0.69 1.11-1.02 1.66-0.75 0.63 0.32 1-3.17 1-9.5 0-6 0.4-10 1-10 0.63 0 0.77-2.49 0.37-6.75-0.35-3.71-1.14-7.04-1.75-7.39-0.62-0.35-0.78-1.14-0.37-1.75 0.42-0.61-0.81-3.56-2.75-6.61-1.92-3.02-3.5-6.63-3.5-8 0-1.38-0.45-2.27-1-2-0.55 0.28-1.53-2.08-2.19-5.25-0.65-3.16-1.58-5.98-2.06-6.25-0.48-0.27-0.72-1.63-0.54-3 0.21-1.57-1.8-6.67-5.44-13.75-3.17-6.19-5.77-12.15-5.77-13.25 0-1.1-1.82-5.94-4.05-10.75-2.23-4.81-6.01-12.13-8.39-16.25-2.38-4.13-7.15-13.13-10.6-20-3.44-6.88-8.42-15.65-11.06-19.5-2.64-3.85-7.07-8.91-9.85-11.25-3.16-2.66-4.86-4.81-4.55-5.75 0.42-1.26-0.41-1.2-5.25 0.41-3.16 1.05-10.7 3.26-16.75 4.91-6.05 1.66-13.7 3.53-17 4.15-3.3 0.62-5.77 1.33-5.5 1.58 0.28 0.24 3.65-0.22 7.5-1.03 3.85-0.82 8.01-1.71 9.25-2 1.24-0.29 2.25-0.07 2.25 0.48 0 0.55 0.45 1 1 1 0.55 0 0.83-0.56 0.63-1.25-0.23-0.75 0.57-1.25 2-1.25 1.3 0 2.37 0.34 2.37 0.75 0 0.41-0.79 1.19-1.75 1.72-1.61 0.89-1.59 0.98 0.25 1.14 1.1 0.09 2.78 0.21 3.74 0.28 0.96 0.06 1.74 0.45 1.75 0.86 0.01 0.41 2.86 3.79 6.34 7.5 3.48 3.71 7.92 9.23 9.87 12.25 1.94 3.02 5.35 9.1 7.57 13.5 2.22 4.4 5.54 10.48 7.39 13.5 1.84 3.02 5.15 10.12 7.34 15.76 3.64 9.34 4.2 10.22 6.25 9.75 1.24-0.28 2.25-0.06 2.25 0.49 0 0.55-0.67 1.23-1.5 1.5-0.82 0.27-1.5 0.95-1.5 1.5 0 0.55 1.12 1.11 2.48 1.25 1.36 0.14 2.69-0.2 2.96-0.75 0.26-0.55 0.27 0.24 0.02 1.75-0.37 2.22 0.07 3.03 2.29 4.2 1.51 0.8 4.66 3.28 7 5.5 3.03 2.89 4.11 4.62 3.75 6.05-0.27 1.1-0.05 2.23 0.5 2.5 0.55 0.27 1.01 1.51 1.02 2.75 0.01 1.86 0.19 1.99 1.06 0.75 0.83-1.18 0.93-1.03 0.49 0.75-0.34 1.33 0.42 4.39 1.85 7.5 1.32 2.89 2.67 6.83 2.99 8.75 0.32 1.92 0.89 5.3 1.27 7.5 0.62 3.62 0.76 3.76 1.38 1.5 0.39-1.43 0.64 0.71 0.58 5-0.06 4.12 0.48 11.77 1.19 17 0.71 5.23 2.04 11.98 2.95 15 0.92 3.02 1.7 5.95 1.75 6.5 0.04 0.55 0.45 2.8 0.89 5 0.7 3.41 0.95 3.71 1.69 2l0.87-2c-0.43 3.1-1.21 3.9-2.02 3.79-0.83-0.12-2.18 1.39-3.14 3.5-0.92 2.04-6.1 8.26-11.5 13.81-5.4 5.56-13.42 12.79-17.82 16.07-4.4 3.29-10.7 7.78-14 10-3.3 2.21-13.2 7.66-22 12.11-8.8 4.45-20.5 9.71-26 11.69-5.5 1.99-14.72 5.59-20.5 8-5.77 2.42-13.42 5.13-17 6.03-3.57 0.89-10.1 2.56-14.5 3.7-4.4 1.15-11.82 3.65-16.5 5.56-4.67 1.91-10.97 4.34-14 5.4-3.02 1.05-11.12 2.57-18 3.38-6.87 0.8-15.31 1.46-18.75 1.46-3.44 0-11.99 1.12-19 2.48-7.01 1.37-16.57 3.63-21.25 5.03-4.67 1.4-12.77 3-18 3.56-5.22 0.55-14 1.66-19.5 2.47-5.5 0.8-15.85 2.17-23 3.03-7.15 0.86-15.25 2.01-18 2.56-2.75 0.55-16.7 1.28-31 1.64-14.3 0.36-32.52 0.65-40.5 0.65-13.86 0.01-15.07-0.16-27.5-3.8-7.15-2.1-15.92-5.17-19.5-6.83-3.57-1.65-10.77-4.56-16-6.46-5.22-1.9-10.58-3.77-11.89-4.14-1.32-0.38-3.91-2.38-5.75-4.44-2.37-2.64-3.14-4.27-2.63-5.5 0.52-1.24 0.37-1.53-0.5-1-0.68 0.41-1.23 0.3-1.23-0.25 0-0.55-0.34-0.83-0.75-0.62-0.41 0.21-0.79-0.13-0.84-0.75-0.05-0.62-0.17-1.92-0.25-2.88-0.11-1.22-0.76-1.6-2.16-1.25-1.45 0.36-1.86 0.09-1.5-1 0.28-0.83-0.17-2.17-1-3-0.82-0.83-1.95-1.5-2.5-1.5-0.55 0-0.78-0.56-0.52-1.25 0.26-0.69-1.14-3.5-3.11-6.25-2.89-4.03-3.78-4.71-4.55-3.5-0.71 1.12-0.81 0.94-0.39-0.75 0.34-1.33-0.15-3.3-1.18-4.81-1.33-1.94-1.95-2.25-2.59-1.25q-0.86 1.33-0.25-0.44c0.32-0.96 0.03-2.89-0.66-4.28-0.69-1.39-1.59-2.51-2-2.5-0.41 0.02-0.52 0.7-0.25 1.53 0.28 0.83 0.28 1.5 0 1.5-0.27 0-1.25-1.69-2.17-3.75-0.92-2.06-1.92-4.2-2.24-4.75-0.33-0.58-0.05-0.68 0.67-0.25 0.86 0.52 1.24-0.02 1.24-1.75 0-1.38-0.45-2.73-1-3-0.6-0.3-0.71 0.2-0.27 1.25 0.52 1.24 0.37 1.53-0.5 1-0.68-0.41-1-1.65-0.73-2.75 0.28-1.1-1.07-6.5-3-12-1.92-5.5-4.43-15.06-5.57-21.25-1.14-6.19-2.33-16.88-2.63-23.75-0.34-7.35-0.07-16.83 0.65-23 0.67-5.77 3.66-20.4 6.63-32.5 2.98-12.1 6.38-24.92 7.55-28.5 1.18-3.58 5.25-13.25 9.06-21.5 3.8-8.25 8.92-19.05 11.38-24 2.45-4.95 7.27-12.9 10.7-17.66 3.43-4.77 9.04-11.63 12.48-15.25 3.44-3.63 6.25-6.82 6.25-7.09 0-0.27 0.46-1.06 1.01-1.75 0.56-0.69 2.4-3.05 4.09-5.25l3.09-4c-9.06-2.78-13.49-3.75-15.69-3.96-2.2-0.2-4.5-1.07-5.12-1.93-0.96-1.36-1.53-1.06-4.08 2.16zm343.2 25.38c-2.75 0.51-12.65 2.02-22 3.37-12.5 1.81-14.81 2.33-8.75 1.97 5.16-0.31 8.25-0.12 8.25 0.51 0 0.55-1.01 1.04-2.25 1.09-1.24 0.05-4.39 0.02-7.01-0.05-2.61-0.08-5.31 0.34-6 0.93-0.91 0.8-0.12 1.01 3 0.81 2.33-0.15 4.24-0.17 4.25-0.03 0.01 0.14-1 0.7-2.24 1.25-1.72 0.77-1.19 0.85 2.25 0.36 2.48-0.36 5.17-0.67 5.99-0.68 0.82-0.01 2.09-0.61 2.82-1.35 0.73-0.73 2.31-1.37 3.51-1.43 1.2-0.05 3.76-0.01 5.68 0.1 2.04 0.12 4.13-0.44 5-1.32 0.83-0.84 2.4-1.28 3.5-0.99 1.1 0.29 2.29-0.04 2.65-0.74 0.49-0.96-0.34-1.12-3.5-0.66-2.28 0.33-7.3 0.85-11.15 1.15-4.8 0.37-3.06-0.09 5.5-1.45 6.88-1.1 14.3-2.39 16.5-2.88 2.43-0.54 3.02-0.89 1.5-0.88-1.37 0-4.75 0.42-7.5 0.92zm-180 6.86c3.3 0.42 9.38 0.83 13.5 0.91 4.13 0.07 7.28-0.04 7-0.26-0.27-0.21-6.35-0.62-13.5-0.91-8.31-0.33-10.84-0.24-7 0.26zm27 1.72c2.2 0.21 6.03 0.21 8.5 0 2.48-0.21 0.68-0.38-4-0.38-4.67 0-6.7 0.17-4.5 0.38zm74 0c2.2 0.21 6.03 0.21 8.5 0 2.48-0.21 0.68-0.38-4-0.38-4.67 0-6.7 0.17-4.5 0.38z"/>
			<path id="Path 6" fill-rule="evenodd" class="s6" d="m823 59.11c-1.3 0.93-1.28 1 0.11 0.5 0.88-0.32 1.44-0.14 1.25 0.4-0.2 0.55-1.15 1.03-2.11 1.09q-1.75 0.1 0.75 0.9c2.45 0.78 2.44 0.8-0.5 0.87-1.65 0.04-2.67 0.42-2.27 0.85 0.41 0.43-0.38 1.79-1.75 3.03-1.36 1.24-2.48 2.92-2.48 3.75 0 0.83-0.7 1.84-1.55 2.25-0.85 0.41-1.98 2.21-2.5 4-0.55 1.88-2.54 4.45-4.7 6.08-2.06 1.56-6.45 4.32-9.75 6.15-3.3 1.83-7.35 4.29-9 5.48-1.65 1.18-5.25 2.98-8 4-2.75 1.01-6.24 2.67-7.75 3.69-1.51 1.02-3.2 1.85-3.75 1.85-0.55 0-1 0.34-1 0.75 0.01 0.41-2.13 1.76-4.75 2.99-2.61 1.23-6.26 3.71-8.1 5.5-2.98 2.89-3.15 3.32-1.5 3.83 1.31 0.41 1.48 0.77 0.6 1.25-0.69 0.37-2.38 0.23-3.75-0.32-1.38-0.55-4.64-0.94-7.25-0.86-2.61 0.07-3.74 0.3-2.5 0.5 1.24 0.2 2.48 0.92 2.77 1.61 0.35 0.85 2.35 1.15 6.25 0.93 4.99-0.29 6.73 0.17 13.47 3.5 4.83 2.39 7.27 4.1 6.5 4.55-0.68 0.41-0.79 0.73-0.24 0.71 0.55-0.02 0.33 0.69-0.5 1.56-0.83 0.87-1.05 1.57-0.5 1.54 0.55-0.03 5.27-3.71 10.5-8.19 5.23-4.48 13.77-12.01 19-16.73 5.23-4.72 9.39-8.93 9.25-9.35-0.14-0.42 0.2-0.55 0.75-0.27 0.55 0.28 1.56-0.66 2.25-2.07 0.69-1.41 2.15-2.75 3.25-2.98 1.1-0.23 2.67-1.19 3.5-2.13 1.33-1.51 1.33-1.61 0-0.82-1.33 0.79-1.33 0.69 0-0.85 0.83-0.96 1.95-1.73 2.5-1.72 0.55 0.02 2.35-1.54 4-3.45 1.65-1.92 3.45-3.48 4-3.48 0.55 0.01 3.14-2.24 5.75-5 2.61-2.75 4.76-5.56 4.78-6.25 0.02-0.69-0.77-2.03-1.75-2.97-0.98-0.95-2.34-1.74-3.03-1.75-0.69-0.02-1.48-0.7-1.75-1.53-0.27-0.83-0.95-1.27-1.5-1-0.55 0.27-1 0.05-1-0.5 0-0.55-0.45-0.77-1-0.5-0.55 0.27-1.23-0.17-1.5-1-0.27-0.83-0.84-1.49-1.25-1.48-0.41 0-1.42 0.5-2.25 1.09zm-275.81 291.89c-0.76 1.92-2 3.09-3.44 3.25-1.65 0.18-2.26 0.91-2.3 2.75-0.02 1.38-0.36 3.06-0.75 3.75-0.38 0.69-0.59 1.41-0.45 1.61 0.14 0.2 3.74 0.65 8 1 5.04 0.42 7.58 0.29 7.25-0.36-0.27-0.55 0.06-1 0.75-1 0.69 0 1.36-1.44 1.49-3.25 0.14-1.79-0.36-5.05-1.11-7.25-1.2-3.55-1.42-3.75-1.99-1.75-0.35 1.24-1.09 2.03-1.64 1.75-0.55-0.27-1-1.17-1-2 0-0.82-0.81-1.5-1.81-1.5-1.07 0-2.29 1.21-3 3zm-37.69 11.74c3.3 0.2 8.92 0.2 12.5 0 3.58-0.19 0.87-0.35-6-0.35-6.88 0-9.8 0.16-6.5 0.35zm-108.02 4.29c-0.71 0.9-2.79 1.05-7.48 0.56-4.58-0.48-6.06-0.38-5 0.35 1.29 0.89 1.26 1.03-0.25 1.04-0.96 0.01-1.98-0.43-2.25-0.98-0.27-0.55-1.85-1-3.5-1-1.65 0-3 0.45-3 1 0 0.55 0.45 1 1 1 0.55 0 0.82 0.68 0.6 1.5-0.22 0.83 0.01 1.5 0.5 1.5 0.5 0 1.69 0.27 2.65 0.59 1.47 0.5 1.51 0.43 0.25-0.48q-1.53-1.09-0.25-1.09c0.69-0.01 2.82 0.66 4.75 1.48 1.93 0.83 3.27 1.05 3 0.5-0.3-0.6 0.4-0.75 1.75-0.38 1.86 0.51 1.99 0.78 0.75 1.56-1.17 0.74-1.06 0.84 0.5 0.45 1.1-0.27 4.7-1.04 8-1.71 3.3-0.66 5.55-1.39 5-1.62-0.55-0.23-2.57 0-4.5 0.5-2.62 0.69-3.82 0.58-4.75-0.44-0.69-0.75-1.25-1.58-1.25-1.86 0-0.27 1.35-0.27 3 0 1.97 0.33 3.43-0.02 4.25-1.02 0.7-0.86 0.86-1.84 0.36-2.25-0.48-0.4-1.1-0.05-1.36 0.77-0.38 1.22-0.59 1.24-1.13 0.14-0.52-1.07-0.86-1.09-1.64-0.11zm-109.83 84.97c-1.54 1.87-1.52 2.13 0.35 4 1.1 1.1 2.68 1.78 3.5 1.5 0.82-0.27 4.37 0.29 7.88 1.25 3.5 0.96 6.2 1.41 6 1-0.21-0.41-0.94-0.73-1.63-0.72-0.69 0.02-2.38-0.81-3.75-1.85-1.38-1.03-3.06-1.72-3.75-1.53-0.69 0.19-1.14-0.16-1-0.79 0.14-0.63-1.15-1.98-2.85-3-3.04-1.83-3.13-1.83-4.75 0.14zm435.11 3.16c-1.24 0.91-4.74 2.63-7.76 3.81-3.02 1.18-7.64 3.13-10.27 4.34-2.62 1.2-4.98 2.75-5.25 3.44-0.26 0.69 1.79 3.16 4.57 5.5 2.78 2.34 7.21 7.4 9.85 11.25 2.64 3.85 7.62 12.63 11.06 19.5 3.45 6.88 8.22 15.88 10.6 20 2.38 4.13 6.16 11.44 8.39 16.25 2.23 4.81 4.05 9.65 4.05 10.75 0 1.1 2.6 7.06 5.77 13.25 3.64 7.08 5.65 12.18 5.44 13.75-0.18 1.38 0.06 2.73 0.54 3 0.48 0.28 1.41 3.09 2.06 6.25 0.66 3.17 1.64 5.53 2.19 5.25 0.55-0.27 1 0.63 1 2 0 1.38 1.58 4.98 3.5 8 1.94 3.05 3.17 6 2.75 6.61-0.41 0.61-0.25 1.4 0.37 1.75 0.61 0.35 1.4 3.68 1.75 7.39 0.4 4.26 0.26 6.75-0.37 6.75-0.6 0-1 4-1 10 0 6.33-0.37 9.82-1 9.5-0.55-0.27-1.3 0.06-1.66 0.75-0.36 0.69-0.98 5.3-1.39 10.25-0.56 6.8-1.88 12.29-5.43 22.5-2.58 7.42-5.6 16.88-6.71 21-1.11 4.13-2.58 8.17-3.25 9-0.68 0.83-1.87 2.98-2.65 4.79-0.77 1.81-1.64 3.25-1.91 3.21-0.27-0.04-1.16 1.4-1.96 3.21-0.8 1.81-2.12 3.96-2.92 4.79-0.81 0.83-2.97 3.86-4.79 6.75-1.83 2.89-3.33 5.7-3.33 6.25 0 0.55-0.35 1.11-0.79 1.25-0.43 0.14-3.3 3.63-6.37 7.75-3.07 4.13-8.23 9.79-11.46 12.59-3.23 2.8-9.4 7.52-13.7 10.5-4.3 2.97-12.63 8.47-18.5 12.21-5.87 3.74-15.63 9.2-21.68 12.13-6.05 2.93-12.8 5.89-15 6.59-2.2 0.69-7.49 2.99-11.75 5.12-4.26 2.12-12.59 5.68-18.5 7.9-5.91 2.22-13.45 4.74-16.75 5.59-3.3 0.85-6.45 1.9-7 2.32-0.55 0.43-5.05 2-10 3.49-4.95 1.49-10.35 3.09-12 3.57-1.65 0.48-6.26 1.34-10.25 1.93-3.99 0.58-10.74 1.06-15 1.07-4.26 0-11.35-0.48-15.75-1.07-6.43-0.86-9.91-0.76-17.75 0.49-5.36 0.87-14.59 1.56-20.5 1.55-6.16-0.01-13.74-0.69-17.75-1.61-3.85-0.87-9.48-1.95-12.5-2.41-3.02-0.45-7.08-1.31-9-1.91-1.93-0.6-7.55-1.75-12.5-2.57-4.95-0.81-11.48-1.48-14.5-1.5-3.02-0.01-11.13-0.86-18-1.88-6.88-1.02-19.93-3.96-29-6.54-9.08-2.57-23.25-7.18-31.5-10.23-8.25-3.06-17.93-6.8-21.5-8.3-3.58-1.5-11-5.72-16.5-9.37-5.5-3.65-12.7-8.69-16-11.2-3.3-2.51-6.23-4.88-6.5-5.26-0.27-0.39-2.86-2.61-5.75-4.95-2.89-2.34-5.7-4.25-6.25-4.25-0.55 0-2.24-1.31-3.75-2.92-1.51-1.6-3.31-2.73-4-2.5-0.69 0.23-6.25-4.64-12.37-10.83-6.12-6.19-12.98-13.94-15.25-17.23-2.27-3.29-5.76-9.14-7.75-13-2.68-5.18-4.32-7.22-6.25-7.77-2.39-0.68-2.63-0.49-2.61 2 0.01 2.66-0.03 2.69-1.47 0.75-1.1-1.49-1.49-1.61-1.5-0.5-0.01 0.83 0.87 4.88 1.95 9 1.08 4.13 1.97 7.61 1.98 7.75 0.01 0.14-0.32 0.07-0.73-0.15-0.41-0.22-0.7 1.47-0.64 3.75 0.06 2.28 0.65 5.5 1.3 7.15 0.66 1.65 2.52 5.7 4.13 9 1.61 3.3 2.95 6.67 2.99 7.5 0.03 0.97-0.65 0.62-1.95-1-1.64-2.04-2.02-2.18-2.05-0.75-0.02 0.96 0.64 2.42 1.47 3.25 0.82 0.83 1.72 1.5 2 1.5 0.27 0 0.84 0.01 1.25 0.02 0.41 0 0.07 0.43-0.75 0.95-1.21 0.77-1.26 1.19-0.23 2.24 0.69 0.71 1.26 1.63 1.25 2.04-0.01 0.41-0.58 0.49-1.27 0.18-0.69-0.32 0.1 0.63 1.75 2.11 1.65 1.47 2.32 2.37 1.5 2q-1.43-0.64 0.21 0.64c0.94 0.72 1.73 1.88 1.75 2.57 0.02 0.69 0.71 1.48 1.54 1.75 0.82 0.28 1.5 0.95 1.5 1.5 0 0.55 1.01 2.23 2.25 3.74 1.24 1.51 4.18 4.77 6.54 7.25 2.36 2.48 4.25 4.74 4.21 5.01-0.04 0.28 3.2 3.55 7.21 7.27 4.01 3.72 8.64 7.9 10.29 9.29 1.65 1.39 4.35 3.68 6 5.1 1.65 1.41 7.95 5.78 14.01 9.7 6.05 3.93 11.9 7.7 13 8.39 1.09 0.69 4.47 2.49 7.49 4 3.02 1.51 6.06 3.31 6.75 4 0.69 0.69 1.7 1.03 2.25 0.75 0.55-0.27 1-0.05 1 0.5 0 0.55 0.67 1 1.5 1 0.82 0 2.96 0.82 4.75 1.83 1.79 1.01 9.1 4.14 16.25 6.95 7.15 2.81 18.62 6.71 25.5 8.67 6.87 1.96 19.25 5.11 27.5 7 8.25 1.9 21.3 4.39 29 5.55 7.7 1.16 20.3 2.79 28 3.62 8.3 0.91 26.21 1.65 44 1.83 16.5 0.17 26.17 0.03 21.5-0.32l-8.5-0.63 12-2.7-5-3.6c4.46-3.64 6.71-5.63 7.88-6.77 1.16-1.14 4.03-2.83 6.37-3.75 2.34-0.92 8.64-2.38 14-3.23 5.36-0.85 12-2.17 14.75-2.94 2.75-0.77 9.5-2.52 15-3.9 5.5-1.37 15.4-3.62 22-5 6.6-1.38 16.95-4.27 23-6.44 6.05-2.16 18.2-6.95 27-10.65 8.8-3.7 21.4-9.7 28-13.35 6.6-3.65 19.42-12.22 28.5-19.06 9.08-6.84 19.82-15.4 23.87-19.02 4.06-3.63 9.56-9.51 12.24-13.09 2.68-3.58 4.88-7.06 4.88-7.75 0.01-0.69 0.46-1.25 1.01-1.25 0.55 0 2.46-2.94 4.25-6.54 1.79-3.6 4.5-7.98 6.02-9.75 1.53-1.77 3.06-4.33 3.4-5.71 0.34-1.37 1.4-3.62 2.35-5 0.96-1.37 2.02-4.41 2.36-6.75 0.34-2.34 1.07-4.47 1.62-4.75 0.55-0.27 1.01-1.29 1.02-2.25 0.01-0.96 0.9-2.65 1.96-3.75 1.07-1.1 2.87-5.6 3.99-10 1.45-5.64 2.01-10.8 1.9-17.5-0.12-8.06-0.42-9.69-2.01-10.75-1.02-0.69-1.64-1.92-1.36-2.75 0.27-0.83 0.05-1.5-0.5-1.5-0.55 0-1-0.45-1-1 0-0.55 0.91-2.01 2.02-3.25 1.12-1.24 4.44-6.52 7.39-11.75 2.95-5.22 6.18-11.75 7.18-14.5 1.52-4.18 1.85-8.67 2.04-27.5 0.15-14.14 0.72-24.68 1.55-28.37 0.73-3.23 1.66-6.04 2.07-6.25 0.41-0.21 1.43 1.31 2.25 3.37 0.83 2.06 1.74 3.53 2.03 3.25 0.28-0.27-0.42-2.97-1.56-6-1.14-3.02-3.69-9.33-5.66-14-1.97-4.67-7.76-16.83-12.88-27-5.11-10.17-13.52-25.47-18.67-34-5.16-8.52-11.83-19.03-14.82-23.34-2.99-4.31-7.13-10.05-9.19-12.75-2.57-3.37-4.37-4.83-5.74-4.66-1.1 0.14-3.01 1-4.25 1.91zm-91.12 15.61c0.84 0.54 0.81 1.02-0.1 1.82-0.68 0.59-2.45 1.04-3.92 1-1.48-0.05-3.1-0.76-3.6-1.58-0.72-1.17-1.2-1.23-2.22-0.29-0.97 0.89-1.81 0.92-3.3 0.09-1.48-0.82-2.06-0.81-2.25 0.04-0.14 0.63-1.49 1.15-3 1.16-1.51 0-4.1 0.87-5.75 1.94-1.65 1.07-3.45 1.63-3.99 1.24-0.58-0.41-0.69-0.18-0.25 0.56q0.75 1.26-1.51 1.35c-2.16 0.1-2.15 0.13 0.25 0.9q2.5 0.8 0.75 0.9c-0.96 0.06-1.52 0.55-1.25 1.1 0.28 0.55-0.96 1.07-2.75 1.15l-3.25 0.15c4.65 0.61 6.67 1.05 7.5 1.37 0.83 0.33 4.65 0.69 8.5 0.8 4.62 0.14 6.32-0.08 5-0.65-1.31-0.56-0.09-0.7 3.5-0.42 3.56 0.29 4.79 0.14 3.5-0.41-1.67-0.71-1.46-0.86 1.25-0.92 2.32-0.05 3.04-0.43 2.51-1.32q-0.73-1.24 0.5-0.5c0.68 0.41 2.14 0.53 3.24 0.25 1.1-0.27 2-0.95 2-1.5 0-0.55-1.01-1.02-2.25-1.04-2.13-0.03-2.09-0.16 0.75-2.42 2.09-1.67 2.77-2.87 2.25-3.96-0.41-0.87-1.31-1.57-2-1.56-0.9 0.01-0.93 0.22-0.11 0.75z"/>
			<path id="Path 7" fill-rule="evenodd" class="s7" d="m721.25 112.68q-1.25 0.32-0.67 3.57c0.33 1.79 1.11 4.54 1.75 6.11 0.92 2.25 3.48 4.03 11.92 8.25 7.13 3.58 12.01 5.4 14.5 5.42 2.25 0.03 4.85-0.78 6.5-2 1.51-1.11 2.75-2.71 2.75-3.53 0-0.82-2.14-2.71-4.75-4.19-2.61-1.48-9.81-5.3-16-8.5-6.19-3.19-12.04-5.73-13-5.63-0.96 0.1-2.31 0.33-3 0.5zm-235.75 210.07c8.25 0.17 21.98 0.17 30.5 0 8.52-0.17 1.77-0.31-15-0.31-16.77 0-23.75 0.14-15.5 0.31zm-117 12.92c-1.1 0.25-2.56 0.65-3.25 0.89-0.69 0.24-1.59 0.52-2 0.62-0.41 0.1-1.43 0.82-2.25 1.61-0.82 0.79-2.69 1.27-4.14 1.07-1.54-0.21-2.38 0.04-2 0.6 0.39 0.58-0.24 0.68-1.61 0.25-1.39-0.44-2.06-0.33-1.75 0.29 0.27 0.55-0.03 1-0.68 1-0.65 0-1.59 1.24-2.08 2.75-0.5 1.51-0.56 4.32-0.15 6.25 0.4 1.93 1.34 4.74 2.07 6.25 1.17 2.39 1.57 2.58 3.09 1.46 0.96-0.71 3.77-2.24 6.25-3.41 3.09-1.45 4.89-3.08 5.75-5.21 0.69-1.7 1.59-2.91 2-2.69 0.41 0.23 0.75-0.22 0.75-1 0-0.77-0.34-1.4-0.75-1.4-0.41 0-1.02-0.79-1.35-1.75-0.47-1.34-0.23-1.58 1-1 1.09 0.51 1.6 0.27 1.6-0.75 0-0.82-0.44-1.5-0.97-1.5-0.53 0-0.19-0.82 0.75-1.82 0.95-1.01 2.4-2.1 3.22-2.42 1.33-0.54 1.33-0.6 0-0.57-0.82 0.03-2.4 0.24-3.5 0.48zm-51 29.18c0.27 0.63 0.16 1.14-0.25 1.12-0.41-0.01-1.32 1.22-2.02 2.75-1.02 2.24-1.02 2.45 0 1.07 0.7-0.94 1.61-1.73 2.02-1.75 0.41-0.02 1.04 1.65 1.38 3.71 0.35 2.06 1.25 4.99 2 6.5 0.76 1.51 4.31 5.34 7.89 8.5 4.45 3.92 6.52 6.47 6.5 8-0.01 1.34 0.58 2.25 1.48 2.25 0.82 0 2.18 0.68 3 1.5 0.82 0.82 1.27 1.73 1 2-0.27 0.27 0.16 1.51 0.96 2.75 0.8 1.24 1.75 4.05 2.1 6.25 0.35 2.2 0.82 4.34 1.04 4.75 0.22 0.41-0.05 0.98-0.6 1.25-0.55 0.27-0.77 1.18-0.5 2 0.27 0.82 0.02 1.5-0.57 1.5-0.59 0-1.64 0.56-2.34 1.25-0.69 0.69-2.01 2.71-2.93 4.5-0.91 1.79-1.66 3.48-1.66 3.75 0 0.27 1.49-1.41 3.3-3.75 1.82-2.34 5.08-5.26 7.25-6.48 2.29-1.3 5.63-2.23 7.95-2.22 2.47 0.01 5.85 1.05 8.85 2.73 2.66 1.5 5.65 4.07 6.64 5.72 0.99 1.65 2.1 4.35 2.47 6 0.37 1.65 0.21 4.8-0.36 7-0.56 2.2-2.39 5.46-4.06 7.25-2.75 2.94-2.87 3.34-1.29 4.18 1.31 0.7 2.07 0.44 3-1 0.69-1.06 1.81-1.74 2.5-1.51 0.69 0.24 2.49-0.66 4-2 1.51-1.33 2.75-2.87 2.75-3.42 0-0.55 0.73-1.79 1.62-2.75 1.33-1.44 1.48-2.92 0.86-8.25-0.71-6.12-0.64-6.46 1.13-5.72 1.14 0.47 2.09 0.33 2.39-0.35 0.36-0.79 4.9-0.5 16 1.04 8.52 1.18 23.15 3.28 32.5 4.67 12.77 1.91 22.22 2.63 38 2.9 11.55 0.21 23.48 0.66 26.5 1 3.02 0.35 13.83 0.15 24-0.45 10.17-0.59 27.5-1.28 38.5-1.52 16.72-0.37 21.89-0.86 31.5-3.01 6.33-1.41 16.9-3.65 23.5-4.97 6.6-1.33 14.02-3.28 16.5-4.34 2.48-1.07 5.29-2.68 6.25-3.59 1.14-1.09 1.66-2.87 1.5-5.15-0.22-3.07 0.14-3.68 3-5 1.79-0.83 3.92-1.51 4.75-1.51 0.83 0 1.73-0.45 2-1 0.27-0.55 1.06-0.71 1.75-0.36 0.69 0.35 0.13-0.51-1.25-1.9-1.37-1.39-6.55-4.11-11.5-6.04-4.95-1.94-11.02-3.84-13.5-4.24-4.18-0.67-4.32-0.79-2-1.66 1.38-0.51 3.74-1.02 5.25-1.12 1.52-0.1 2.76-0.63 2.78-1.18 0.01-0.63-1.19-0.7-3.26-0.18-1.8 0.46-8 1.7-13.77 2.76-5.77 1.06-11.74 1.93-13.25 1.93-1.56-0.01-2.97 0.64-3.25 1.49-0.27 0.82-0.5 1.73-0.5 2 0 0.27 0.79 0.23 1.75-0.09 1.07-0.36 2.04 0.03 2.5 1 0.51 1.08 0.11 1.91-1.25 2.59-1.1 0.55-8.41 2.32-16.25 3.92-7.84 1.61-15.49 3.41-17 4-1.51 0.6-13.66 1.8-27 2.68-16.69 1.1-29.86 1.4-42.25 0.95-9.9-0.36-22.05-1.08-27-1.59-4.95-0.51-13.73-2.13-19.5-3.6-5.77-1.47-12.07-2.64-14-2.6-2.74 0.05-3-0.08-1.19-0.6 1.27-0.36 2.28-1 2.25-1.41-0.03-0.41-0.06-1.2-0.06-1.75 0-0.55 0.9-1 2-1 1.1 0 1.77-0.45 1.5-1-0.27-0.55-1.48-1-2.67-1-1.19 0-1.83-0.34-1.42-0.75 0.41-0.41-6.61-1.7-15.58-2.87-8.98-1.16-17.23-1.91-18.33-1.65-1.88 0.44-1.85 0.56 0.5 2.03 1.37 0.86 3.62 1.75 5 1.98 1.37 0.23 3.29 0.83 4.25 1.34 0.96 0.51 2.31 0.66 3 0.35 0.69-0.32 3.61 0.58 6.5 2 2.89 1.41 6.15 2.57 7.25 2.57 1.1 0 2 0.45 2 1 0 0.61-2.06 0.79-5.25 0.47-2.89-0.29-10.2-1.18-16.25-1.97-6.05-0.79-16.18-1.93-22.5-2.54-6.32-0.6-14.2-1.8-17.5-2.64-3.3-0.85-7.35-2.23-9-3.07-1.65-0.84-5.02-2.13-7.5-2.88-2.48-0.74-6.86-1.35-9.75-1.36-3.77-0.01-5.39-0.43-5.75-1.51-0.27-0.82-0.95-1.27-1.5-1-0.55 0.27-1.45-0.62-2-2-0.55-1.37-1.68-2.73-2.5-3-0.82-0.27-1.51-1.29-1.52-2.25-0.02-0.96-1.26-4-2.76-6.75-2.32-4.24-3.19-5.01-5.73-5.05-1.64-0.03-3.55-0.44-4.24-0.91q-1.22-0.81-0.75 0.31zm17.94 70.15c0.2 3.02 1.19 7.18 2.21 9.23 1.06 2.13 2.39 3.53 3.1 3.25 0.69-0.26 1.25-0.03 1.25 0.52 0 0.55-0.79 1.03-1.75 1.07-1.5 0.06-1.46 0.2 0.25 0.93 1.1 0.47 1.44 0.89 0.75 0.93-0.69 0.04-0.97 0.63-0.63 1.32 0.5 0.99 0.76 0.99 1.25-0.03 0.37-0.74 1.47-1.02 2.63-0.68 1.51 0.45 1.39 0.2-0.5-1.03l-2.5-1.62 6 1.19c-4.65-2.86-7.09-5.24-8.43-7.14-1.34-1.89-2.78-5.69-3.21-8.44l-0.78-5zm25.06 14.67c-2.12 1.13-4.46 1.43-8 1.04-4.24-0.47-4.65-0.38-2.71 0.62 1.25 0.64 2.26 1.51 2.25 1.92-0.02 0.41 0.86 1.2 1.96 1.75 1.7 0.85 1.89 0.73 1.28-0.75-0.54-1.31-0.36-1.58 0.75-1.08 0.81 0.36 3.5 0.18 5.97-0.4 2.48-0.59 4.73-1.22 5-1.4 0.28-0.18-0.17-1.03-1-1.89-0.82-0.86-1.72-1.53-2-1.48-0.27 0.04-1.85 0.8-3.5 1.67z"/>
			<path id="Path 8" fill-rule="evenodd" class="s8" d="m748.55 121c-0.3 0.55 0.01 1.45 0.7 1.99 0.69 0.55 1.6 0.66 2.03 0.25 0.43-0.41 0.76-0.18 0.75 0.51-0.02 0.76 0.84 1.08 2.22 0.81 1.24-0.24 3.04-0.02 4 0.5 0.96 0.52 1.53 1.39 1.25 1.94-0.27 0.55 0.26 1.56 1.19 2.25 1.33 0.98 1.58 0.99 1.15 0.01q-0.54-1.23 1.06-0.59c0.88 0.36 2.39 1.48 3.35 2.49 0.96 1.01 1.98 1.84 2.25 1.84 0.28 0 0.28-0.45 0-1-0.27-0.55-0.05-1.22 0.5-1.5 0.55-0.28 0.78-0.95 0.5-1.5-0.27-0.55 0.06-1.02 0.75-1.05 0.69-0.02-1.22-1.33-4.25-2.9-3.02-1.56-5.84-2.67-6.25-2.45-0.41 0.22-0.75-0.05-0.75-0.6 0-0.56-0.76-0.68-1.75-0.27-1.24 0.52-1.53 0.37-1-0.5 0.54-0.89-0.34-1.23-3.2-1.23-2.17 0-4.2 0.45-4.5 1zm-103.41 228.39c-0.08 0.89 0.31 1.61 0.86 1.61 0.55 0 0.78-0.45 0.5-1-0.27-0.55 0.38-0.44 1.45 0.25 1.08 0.69 2.31 0.91 2.75 0.5 0.44-0.41 0.58-0.94 0.3-1.17-0.27-0.23-1.67-0.73-3.11-1.11-1.99-0.52-2.64-0.31-2.75 0.92zm-343.05 88.56c-0.05 0.58-2.11 3.53-4.59 6.55l-4.5 5.5c5.76 3.29 6.73 4.43 6.25 5.23-0.53 0.87-0.24 1.02 1 0.5 0.96-0.4 1.98-0.28 2.25 0.27 0.28 0.55 1.96 1.63 3.75 2.41 1.79 0.77 3.59 1.45 4 1.5 0.41 0.05 2.21 0.82 4 1.72 1.79 0.9 8.65 3.35 15.25 5.46 6.6 2.1 16.73 4.97 22.5 6.38 5.78 1.4 12.08 2.96 14 3.47 1.93 0.5 7.55 1.66 12.5 2.56 4.95 0.91 16.65 2.75 26 4.1 9.35 1.35 21.05 2.91 26 3.46 4.95 0.55 18.23 1.66 29.5 2.46 11.28 0.81 30.85 1.76 43.5 2.11 13.42 0.37 33.21 0.14 47.5-0.54 13.48-0.65 30.8-1.87 38.5-2.7 7.7-0.84 17.38-2.15 21.5-2.92 5.88-1.09 6.37-1.29 2.25-0.93-2.98 0.26-5.47 0.03-5.75-0.54-0.27-0.55-2.19-1.07-4.25-1.16-3.61-0.15-3.63-0.17-0.5-0.5 1.79-0.19 3.03-0.79 2.75-1.34-0.27-0.55 0.29-1.04 1.25-1.1q1.75-0.1-0.75-0.9c-2.4-0.77-2.41-0.8-0.25-0.9q2.26-0.09 1.51-1.35c-0.44-0.74-0.33-0.97 0.25-0.56 0.54 0.39 2.34-0.17 3.99-1.24 1.65-1.07 4.24-1.94 5.75-1.94 1.51-0.01 2.86-0.53 3-1.16 0.19-0.85 0.77-0.86 2.25-0.04 1.49 0.83 2.33 0.8 3.29-0.1 1.02-0.95 1.49-0.89 2.22 0.29 0.51 0.83 2.17 1.53 3.71 1.58 1.53 0.04 3.29-0.41 3.92-1 0.85-0.81 0.85-1.26 0-1.81-0.82-0.53-0.79-0.74 0.11-0.75 0.69-0.01 1.59 0.69 2 1.56 0.52 1.09-0.16 2.29-2.25 3.96-2.84 2.26-2.88 2.39-0.75 2.42 1.24 0.02 2.25 0.49 2.25 1.04 0 0.55-0.9 1.23-2 1.5-1.1 0.27-2.56 0.16-3.24-0.25q-1.23-0.74-0.5 0.5c0.55 0.93-1.01 1.43-6.01 1.94-3.71 0.38-6.07 0.86-5.25 1.06 0.83 0.21 6.23-0.31 12-1.14 5.78-0.84 17.48-3.16 26-5.16 8.53-2 19.1-4.71 23.5-6.02 4.4-1.32 8.9-2.41 10-2.44l2-0.05c-3.1-1.76-4.33-2.76-4.73-3.35-0.41-0.6-0.75-2.66-0.77-4.59-0.02-1.93-0.43-4.18-0.93-5-0.75-1.26-1.38-1.3-3.98-0.25-1.75 0.71-2.87 0.82-2.59 0.25 0.28-0.55 0.39-1.01 0.25-1.02-0.14 0-2.95 0.91-6.25 2.04-3.3 1.13-10.27 3.15-15.5 4.47-5.22 1.33-17.37 3.99-27 5.91-9.62 1.92-26.72 4.62-38 6-11.27 1.39-27.7 2.99-36.5 3.56-8.8 0.58-30.17 1.04-47.5 1.03-17.32-0.01-38.25-0.47-46.5-1.01-8.25-0.55-21.75-1.68-30-2.52-8.25-0.84-21.97-2.68-30.5-4.08-8.52-1.4-21.35-3.85-28.5-5.44-7.15-1.59-17.72-4.22-23.5-5.85-5.77-1.63-13.54-4.12-17.25-5.53-3.71-1.41-10.91-4.63-16-7.17-5.09-2.53-10.67-5.7-12.41-7.05-1.73-1.34-3.19-1.97-3.25-1.39zm420.91 17.63c-2.47 1.29-7.76 3.83-11.75 5.63-3.98 1.81-7.13 3.42-7 3.57 0.14 0.16 2.73-0.8 5.75-2.12 3.03-1.31 7.53-3.15 10-4.07 2.48-0.93 5.63-2.55 7-3.62 1.38-1.06 2.05-1.88 1.5-1.83-0.55 0.05-3.02 1.15-5.5 2.44zm71.68 113.17c-0.23 0.41-0.94 3-1.59 5.75-0.67 2.85-1.29 14.87-1.43 28-0.22 19.26-0.55 23.81-2.07 28-1 2.75-4.23 9.27-7.18 14.5-2.95 5.23-6.27 10.51-7.39 11.75-1.11 1.24-2.02 2.7-2.02 3.25 0 0.55 0.45 1 1 1 0.55 0 0.77 0.67 0.5 1.5-0.27 0.83 0.34 2.06 1.36 2.75 1.59 1.06 1.89 2.69 2.01 10.75 0.11 6.7-0.45 11.86-1.9 17.5-1.12 4.4-2.92 8.9-3.99 10-1.06 1.1-1.95 2.79-1.96 3.75-0.01 0.96-0.47 1.98-1.02 2.25-0.55 0.27-1.28 2.41-1.62 4.75-0.34 2.34-1.4 5.38-2.36 6.75-0.95 1.38-2.01 3.63-2.35 5-0.34 1.38-1.87 3.94-3.4 5.71-1.52 1.77-4.23 6.15-6.02 9.75-1.79 3.6-3.7 6.54-4.25 6.54-0.55 0-1 0.56-1.01 1.25 0 0.69-2.2 4.17-4.88 7.75-2.68 3.58-8.18 9.46-12.24 13.09-4.05 3.62-14.79 12.18-23.87 19.02-9.08 6.84-21.9 15.41-28.5 19.06-6.6 3.65-19.2 9.65-28 13.35-8.8 3.7-20.95 8.49-27 10.65-6.05 2.17-16.4 5.06-23 6.44-6.6 1.38-16.5 3.63-22 5-5.5 1.38-12.25 3.13-15 3.9-2.75 0.77-9.39 2.09-14.75 2.94-5.36 0.85-11.66 2.31-14 3.23-2.34 0.92-5.21 2.61-6.37 3.75-1.17 1.14-3.42 3.13-5 4.42l-2.88 2.35 5 3.55-12 2.9c24.83 1.21 33.6 0.97 45-0.13 8.8-0.85 17.8-1.77 20-2.04 2.2-0.28 7.38-0.97 11.5-1.55 4.13-0.58 11.33-1.73 16-2.56 4.67-0.83 10.08-1.92 12-2.41 1.92-0.5 8.45-2.07 14.5-3.49 6.05-1.43 16.17-4.19 22.5-6.15 6.33-1.95 15.55-5.13 20.5-7.06 4.95-1.94 13.27-5.53 18.5-7.98 5.23-2.45 13.55-6.74 18.5-9.53 4.95-2.8 13.95-8.34 20-12.32 6.05-3.97 14.58-10.31 18.96-14.08 4.38-3.77 9.89-8.76 12.25-11.1 2.36-2.34 4.29-4.59 4.29-5-0.01-0.41 0.78-1.23 1.75-1.82 0.96-0.59 4.56-4.53 8-8.75 3.44-4.23 6.25-8.13 6.25-8.68 0-0.55 0.36-1.11 0.81-1.25 0.44-0.14 2.16-2.27 3.82-4.75 1.66-2.48 4.62-7.42 6.59-11 1.97-3.58 4.95-9.2 6.63-12.5 1.68-3.3 4.48-10.05 6.21-15 1.73-4.95 3.8-11.48 4.59-14.5 0.79-3.02 2.12-9.33 2.95-14 0.84-4.67 1.79-15.25 2.12-23.5 0.38-9.56 0.14-18.99-0.67-26-0.69-6.05-2.35-16.4-3.68-23-1.33-6.6-3.73-16.73-5.33-22.5-1.61-5.77-3.51-11.98-4.23-13.78-0.72-1.81-1.71-2.93-2.21-2.5-0.52 0.45-0.62-0.17-0.25-1.47 0.36-1.24 0.2-2.48-0.35-2.75-0.55-0.27-0.77-0.95-0.5-1.5 0.27-0.55 0.05-1-0.5-1-0.55 0-1.57-1.58-2.27-3.5-0.7-1.92-1.57-3.5-1.95-3.5-0.37 0-0.87 0.34-1.1 0.75z"/>
			<path id="Path 9" fill-rule="evenodd" class="s9" d="m718.1 114.67c-0.07 0.45 0.29 1.28 0.82 1.83 0.52 0.55 1.09 2.35 1.26 4 0.2 1.83 1.3 3.68 2.82 4.73 1.37 0.96 2.5 2.3 2.5 2.99 0 0.68 1.64 1.48 3.64 1.76 2.01 0.29 4.03 0.85 4.5 1.25 0.47 0.4-0.83 0.51-2.89 0.25-3.02-0.39-3.65-0.19-3.25 1.02 0.32 0.97 1.29 1.32 2.75 0.99 1.24-0.28 1.69-0.28 1 0-0.93 0.38-0.8 1.05 0.5 2.61 1.64 1.96 1.37 1.93-4-0.5-3.16-1.43-5.75-2.38-5.75-2.1 0 0.28 2.36 1.61 5.25 2.97 3.83 1.8 5.72 2.2 7 1.5q1.74-0.96 1.25 0.03c-0.28 0.56 0.27 0.51 1.25-0.13 1.35-0.87 2.43-0.74 4.75 0.57 1.65 0.93 2.21 1.43 1.25 1.12-0.96-0.31-2.54-0.81-3.5-1.12-0.96-0.31-0.51 0.14 1 1q2.75 1.55 4.5 0.68c0.96-0.49 2.42-0.66 3.25-0.39 0.83 0.27 1.84-0.01 2.25-0.62 0.53-0.78 2.22-0.52 5.75 0.89l5 2c0-4.65 0.34-5.99 0.75-5.98 0.41 0.01 0.64 1.25 0.5 2.75-0.24 2.67-0.22 2.67 0.68-0.27 0.51-1.65 0.65-3.68 0.31-4.5-0.55-1.33-0.4-1.33 1.32 0 1.82 1.4 1.84 1.39 0.44-0.31-0.83-0.99-2.06-1.55-2.75-1.25-0.69 0.31-1.02 0.11-0.75-0.44 0.27-0.55-0.63-1.68-2-2.5-2.3-1.38-2.45-1.36-1.9 0.25 0.41 1.18-0.32 2.49-2.25 4.03-1.77 1.42-4.18 2.28-6.35 2.27-1.97-0.02-7-1.71-11.5-3.88-4.4-2.11-8.67-3.6-9.5-3.31-0.85 0.31-1.19 0.13-0.79-0.41 0.39-0.52-0.4-1.62-1.76-2.45-1.37-0.83-2.91-2.63-3.42-4-0.52-1.38-1.07-3.59-1.23-4.92-0.17-1.33-0.81-2.61-1.43-2.84-0.63-0.22-1.2-0.03-1.27 0.43zm-258.87 208.57c-1.5 0.41-4.19 0.52-5.98 0.25-1.79-0.27-3.88-0.03-4.64 0.52-0.77 0.56-4.03 0.95-7.25 0.86-3.22-0.08-8.34 0.17-11.36 0.57-3.02 0.4-7.19 0.68-9.25 0.64-2.39-0.05-3.74 0.37-3.73 1.17 0.01 0.91-0.95 1.04-3.5 0.5-2.18-0.46-3.52-0.37-3.52 0.25 0 0.57-1.5 0.79-3.5 0.5-1.93-0.27-3.51-0.16-3.51 0.25-0.01 0.41-1.36 0.64-3 0.5-1.65-0.14-3.19 0.09-3.43 0.5-0.24 0.41-1.7 0.55-3.25 0.3-2.01-0.32-2.6-0.1-2.06 0.75 0.51 0.82-0.12 1.21-2 1.24-1.51 0.02-3.99 0.02-5.5 0-1.51-0.02-2.75 0.41-2.75 0.96 0 0.55-1.13 0.77-2.5 0.5-1.38-0.27-2.5-0.05-2.5 0.5 0 0.55-0.68 0.77-1.5 0.5-0.83-0.27-1.5-0.05-1.5 0.5 0 0.55-1.23 0.76-2.75 0.47-2.04-0.39-2.36-0.28-1.25 0.46 1.29 0.85 1.22 1.2-0.5 2.5-1.1 0.83-1.44 1.52-0.75 1.54 0.69 0.02 1.25 0.71 1.25 1.53 0 1.02-0.51 1.26-1.6 0.75-1.23-0.58-1.47-0.34-1 1 0.33 0.96 0.94 1.75 1.35 1.75 0.41 0 0.75 0.63 0.75 1.4 0 0.78-0.34 1.23-0.75 1-0.41-0.22-1.2 0.95-1.75 2.6q-1 2.99-2.24 2.25-1.23-0.74-0.5 0.5c0.58 0.98 1.55 0.9 4.49-0.36 2.06-0.89 6.45-2.44 9.75-3.44 3.3-1.01 10.5-2.95 16-4.33 5.5-1.37 16.98-3.62 25.5-5.01 8.52-1.39 23.6-3.25 33.5-4.14 11.52-1.04 28.8-1.64 48-1.66 20.18-0.03 35.73 0.48 47.5 1.58 9.62 0.89 19.52 1.93 22 2.3 3.23 0.49 4.24 0.37 3.57-0.42-0.59-0.7-0.48-1.22 0.3-1.43 0.67-0.19 1.6-2.14 2.07-4.34 0.59-2.73 0.49-4.35-0.29-5.11-0.69-0.67-2.79-0.87-5.28-0.5-2.62 0.39-4.64 0.17-5.5-0.59-0.87-0.77-3.18-1.02-6.37-0.68-2.75 0.29-5.67 0.21-6.5-0.2-0.83-0.4-3.98-0.88-7-1.07-3.02-0.19-22.95-0.46-44.27-0.6-21.32-0.14-40 0.08-41.5 0.49zm-144.48 46.84c-0.96 1.06-1.41 1.93-1 1.94 0.41 0 0.24 0.34-0.37 0.75-0.62 0.4-3.02 4.55-5.32 9.23-2.31 4.68-4.8 9.63-5.53 11-0.73 1.38-3.4 7.11-5.93 12.75-2.99 6.67-4.6 11.65-4.6 14.25 0 2.2 0.67 5.35 1.5 7 0.82 1.65 1.72 3 2 3 0.27 0 0.07-0.79-0.45-1.75-0.52-0.96-0.75-2.76-0.5-4 0.25-1.24 1.46-3.61 2.7-5.27 1.24-1.66 2.81-3.23 3.5-3.5 0.69-0.26 1.08-1.04 0.86-1.73-0.21-0.69 0.48-2.38 1.54-3.75 1.07-1.38 1.92-1.94 1.89-1.25-0.02 0.69 0.41 1.25 0.96 1.25 0.55 0 0.77-0.45 0.5-1-0.28-0.55-0.16-1.11 0.25-1.25 0.41-0.14 2.77-2.73 5.24-5.75 2.46-3.02 4.94-5.8 5.5-6.16 0.55-0.37 1.57-0.48 2.26-0.25 0.69 0.22 1.92-0.27 2.75-1.09 0.82-0.82 1.5-1.95 1.5-2.5 0-0.55 1.35-1.45 3-2q3-1 2.5 0c-0.28 0.55 0.24 0.89 1.15 0.75 1.15-0.18 1.76 0.65 2.03 2.75 0.21 1.65-0.26 5.02-1.05 7.5-0.79 2.48-1.96 8.1-2.6 12.5-0.64 4.4-2.09 12.5-3.22 18-1.13 5.5-2.45 11.46-2.93 13.25-0.84 3.1-0.71 3.32 2.87 4.86 2.06 0.88 7.12 2.86 11.25 4.4 4.12 1.53 11.77 3.96 17 5.38 5.22 1.43 12.65 3.28 16.5 4.12 3.85 0.83 11.5 2.39 17 3.45 5.5 1.07 16.3 2.86 24 3.98 7.7 1.12 21.2 2.7 30 3.52 8.8 0.82 24.55 1.95 35 2.51 10.45 0.56 26.42 1.02 35.5 1.01 9.08 0 24.37-0.46 34-1.01 9.62-0.55 24.47-1.69 33-2.53 8.52-0.84 22.92-2.64 32-4.01 9.08-1.36 23.7-4.09 32.5-6.05 8.8-1.97 19.83-4.69 24.5-6.04 4.67-1.36 8.88-2.77 9.35-3.15 0.47-0.38-0.8-4.29-2.83-8.69-2.02-4.4-4.96-10.02-6.53-12.5-1.56-2.48-4.94-9.68-7.5-16-2.56-6.32-5.29-12.29-6.07-13.25-1.24-1.53-1.2-1.87 0.33-2.72 1.38-0.76 1.43-0.98 0.25-1.04-0.89-0.03-0.48-0.6 1-1.39 2.43-1.29 2.44-1.36 0.5-2.39-1.1-0.58-1.67-1.43-1.26-1.88 0.41-0.46 0.3-1.39-0.25-2.08q-0.98-1.25 0.01-1.75c0.55-0.27 1.02-0.16 1.04 0.25 0.03 0.41 0.7-1.05 1.49-3.25 0.79-2.2 1.45-5.13 1.47-6.5 0.02-1.97 0.23-2.18 0.98-1 0.81 1.27 1.39 1.08 3.74-1.19 2.31-2.25 2.57-2.96 1.53-4.25-0.79-0.98-0.88-1.75-0.25-2.06 0.55-0.27 1.05-0.16 1.12 0.25 0.06 0.41 0.06 1.09 0 1.5-0.07 0.41 0.89 0.46 2.13 0.12 1.24-0.35 2.58-1.14 2.98-1.75 0.41-0.62 0.75-1.68 0.75-2.37 0.01-0.69-0.32-1.27-0.73-1.29-0.41-0.03-1.31 0.53-1.99 1.25-0.69 0.71-0.91 1.73-0.5 2.26 0.41 0.53-0.05 0.42-1.01-0.25-1.38-0.96-2.17-0.95-3.75 0.03-1.1 0.69-1.81 1.48-1.58 1.75 0.23 0.27-0.34 0.59-1.25 0.7-0.92 0.1-7.52 2.24-14.67 4.73-7.15 2.5-13.79 4.55-14.75 4.56-1 0-1.53 0.54-1.24 1.26 0.33 0.8-0.47 1.32-2.25 1.43-1.52 0.1-3.89 0.61-5.26 1.12-2.32 0.87-2.18 0.99 2 1.66 2.47 0.4 8.55 2.3 13.5 4.24 4.95 1.93 10.12 4.65 11.5 6.04 1.37 1.39 1.94 2.25 1.25 1.9-0.69-0.35-1.48-0.19-1.75 0.36-0.28 0.55-1.17 1-2 1-0.83 0-2.96 0.68-4.75 1.51-2.86 1.32-3.22 1.93-3 5 0.16 2.28-0.36 4.06-1.5 5.15-0.96 0.91-3.78 2.52-6.25 3.59-2.48 1.06-9.9 3.01-16.5 4.34-6.6 1.32-17.17 3.56-23.5 4.97-9.61 2.15-14.78 2.64-31.5 3.01-11 0.24-28.33 0.93-38.5 1.52-10.17 0.6-20.98 0.8-24 0.45-3.03-0.34-14.95-0.79-26.5-1-15.78-0.27-25.23-0.99-38-2.9-9.35-1.39-23.98-3.49-32.5-4.67-11.1-1.54-15.64-1.83-16-1.04-0.3 0.68-1.25 0.82-2.39 0.35-1.77-0.74-1.84-0.4-1.13 5.72 0.62 5.33 0.47 6.81-0.86 8.25-0.89 0.96-1.62 2.2-1.62 2.75 0 0.55-1.24 2.09-2.75 3.42-1.51 1.34-3.31 2.24-4 2-0.69-0.23-1.81 0.45-2.5 1.51-1.02 1.57-1.62 1.73-3.25 0.84-1.83-1-1.87-0.95-0.5 0.59 0.82 0.93 1.27 1.83 1 2.01-0.28 0.18-2.53 0.81-5 1.4-2.48 0.58-5.16 0.76-5.97 0.4-1.11-0.5-1.3-0.23-0.75 1.08 0.61 1.48 0.41 1.6-1.28 0.75-1.1-0.55-2-1.45-2-2 0-0.55-2.25-1.79-5-2.75-2.76-0.96-5.01-2.09-5-2.5 0-0.41-0.56-0.53-1.25-0.27-0.71 0.28-2.04-1.12-3.09-3.25-1.01-2.05-2.08-5.75-2.38-8.23-0.41-3.37 0.02-5.76 1.69-9.5 1.23-2.75 2.83-5.56 3.56-6.25 0.73-0.69 1.81-1.25 2.4-1.25 0.59 0 0.84-0.68 0.57-1.5-0.28-0.82-0.05-1.73 0.5-2 0.55-0.27 0.82-0.84 0.6-1.25-0.22-0.41-0.69-2.55-1.04-4.75-0.35-2.2-1.3-5.01-2.1-6.25-0.8-1.24-1.24-2.48-0.96-2.75 0.27-0.27-0.18-1.18-1-2-0.83-0.82-2.18-1.5-3-1.5-0.9 0-1.49-0.91-1.48-2.25 0.02-1.53-2.05-4.08-6.5-8-3.58-3.16-7.13-6.99-7.89-8.5-0.75-1.51-1.58-4.44-1.84-6.5-0.26-2.06-0.88-3.71-1.38-3.67-0.5 0.05-1.7 0.95-2.66 2z"/>
			<path id="Path 10" fill-rule="evenodd" class="s10" d="m335.44 862.34c-1.84 1.27-1.78 1.41 1.33 2.75 1.8 0.77 3.43 2.08 3.63 2.91 0.2 0.83 0.42 0.49 0.48-0.75 0.08-1.53 0.6-2.09 1.62-1.75 0.95 0.32 1.23 0.09 0.75-0.62-0.41-0.62-1.71-0.96-2.88-0.75-1.17 0.2-1.99 0.14-1.82-0.13 0.18-0.28-0.02-1.06-0.43-1.75-0.59-0.99-1.15-0.97-2.68 0.09zm8.81 5.33c0.96 0.18 1.52 0.78 1.25 1.33-0.27 0.55 1.19 1.7 3.25 2.56 2.06 0.86 4.43 1.3 5.25 0.98 0.82-0.33 1.8-0.02 2.17 0.68 0.53 1 0.96 1.02 2 0.07 1.05-0.95 2.02-0.79 4.58 0.75 1.79 1.08 3.48 1.96 3.75 1.96 0.27 0 0.27-0.45 0-1-0.27-0.55 0.06-1.18 0.75-1.4 0.69-0.22-0.21-0.89-2-1.5-1.79-0.6-3.24-1.66-3.22-2.35 0.01-0.69-0.32-0.93-0.75-0.55-0.43 0.39-1.9 0.24-3.28-0.34-1.37-0.57-5.43-1.15-9-1.28-3.57-0.14-5.71-0.1-4.75 0.09zm52 13.95c0.96 0.21 1.52 0.83 1.25 1.38-0.27 0.55 0.51 1.25 1.75 1.55 1.24 0.31 3.38 0.09 4.75-0.49l2.5-1.04c-3.87 0.29-6.01-0.16-7.25-0.82-1.24-0.66-2.81-1.15-3.5-1.08-0.69 0.06-0.46 0.28 0.5 0.5zm21.17 2.72l-2.92 3.33c5.43 0.53 9.09 0.71 11.65 0.75 2.55 0.05 4.47 0.42 4.25 0.83-0.22 0.41 0.72 0.75 2.1 0.75 1.37 0 3.29 0.27 4.25 0.59 1.47 0.5 1.51 0.43 0.25-0.48-1.25-0.9-1.12-1.08 0.75-1.09 1.24-0.01 2.4 0.54 2.59 1.23 0.28 1 0.98 1 3.5 0 2.88-1.14 3.21-1.07 3.66 0.75 0.45 1.81 1.28 1.99 8.75 1.88l8.25-0.13c-8.52-1.32-11.23-1.95-11.5-2.25-0.27-0.31 0.29-0.54 1.25-0.53 1.12 0.02 1.57-0.51 1.25-1.47-0.34-1.02 0.21-1.53 1.75-1.59 1.63-0.07 1.28-0.37-1.25-1.09-1.93-0.54-4.69-0.84-6.14-0.65-1.46 0.18-2.51 0.1-2.34-0.17 0.17-0.28-4.45-1.13-10.28-1.89-7.96-1.04-10.92-1.11-11.92-0.25-1 0.87-1.68 0.78-2.82-0.36-0.82-0.83-1.65-1.5-1.83-1.5-0.18 0-1.64 1.5-3.25 3.34zm-104.74 7.41c-0.37 0.69 0 1.92 0.82 2.75 0.82 0.83 2.29 1.51 3.25 1.53 0.96 0.01 2.43 0.66 3.25 1.44 0.82 0.78 3.37 1.56 5.65 1.73 2.29 0.16 3.97 0.64 3.75 1.05-0.22 0.41 0.5 0.97 1.6 1.25 1.1 0.27 2 0.05 2-0.5 0-0.55-0.45-1-1-1-0.55 0-0.77-0.45-0.5-1 0.27-0.55-0.29-1.41-1.25-1.92-0.96-0.5-2.88-1.08-4.25-1.27-1.38-0.2-2.95-0.65-3.5-1-0.55-0.36-2.24-1.13-3.75-1.73-2.3-0.9-2.67-0.84-2.25 0.42 0.27 0.83 0.16 1.51-0.25 1.53-0.41 0.02-1.23-0.99-1.82-2.25-0.74-1.58-1.28-1.89-1.75-1.03zm190.87 4.25c-0.34 0.62 1.32 0.9 4.36 0.75 2.7-0.14 4.72-0.59 4.5-1-0.23-0.41-2.19-0.75-4.36-0.75-2.17 0-4.2 0.45-4.5 1zm-163.55 6.92c-1.15 0.69-0.73 1.04 1.75 1.49 1.79 0.32 3.48 0.59 3.75 0.59 0.27 0 1.85 0.45 3.5 1 2.27 0.76 2.99 0.7 2.96-0.25-0.04-0.89 0.41-0.81 1.54 0.25 1.23 1.16 1.85 1.23 2.79 0.31 0.94-0.93-0.01-1.55-4.29-2.76-3.02-0.87-6.63-1.56-8-1.54-1.38 0.01-3.18 0.42-4 0.91z"/>
			<path id="Path 11" fill-rule="evenodd" class="s11" d="m358.5 338.48c-0.55 0.18-4.82 1.55-9.5 3.05-4.68 1.49-11.43 4.17-15 5.96-3.57 1.78-7.96 4.88-9.75 6.88-1.79 2-4.1 5.32-5.14 7.38l-1.89 3.75c8.03 0 8.38 0.25 10.99 5 1.51 2.75 2.75 5.79 2.77 6.75 0.01 0.96 0.7 1.98 1.52 2.25 0.82 0.27 1.95 1.62 2.5 3 0.55 1.37 1.45 2.27 2 2 0.55-0.27 1.23 0.17 1.5 1 0.36 1.08 1.98 1.5 5.75 1.51 2.89 0.01 7.27 0.62 9.75 1.36 2.48 0.75 5.85 2.04 7.5 2.88 1.65 0.84 5.7 2.22 9 3.07 3.3 0.84 11.18 2.04 17.5 2.64 6.32 0.61 16.45 1.75 22.5 2.54 6.05 0.79 13.36 1.68 16.25 1.97 3.19 0.32 5.25 0.14 5.25-0.47 0-0.55-0.9-1-2-1-1.1 0-4.36-1.16-7.25-2.57-2.89-1.42-5.81-2.32-6.5-2-0.69 0.31-2.82-0.11-4.75-0.93-1.93-0.83-3.5-1.27-3.5-1 0 0.27-1.36-0.29-3.03-1.25-2.29-1.32-2.64-1.87-1.45-2.25 0.86-0.27-5.76-2.33-14.72-4.57-8.97-2.25-19.63-5.62-23.69-7.5-4.07-1.89-8.68-4.89-10.25-6.68-1.63-1.85-2.87-4.44-2.89-6-0.02-1.51 0.98-4.1 2.22-5.75 1.24-1.65 1.59-2.44 0.78-1.76-0.81 0.69-1.88 0.91-2.38 0.5-0.5-0.41-0.62-0.18-0.25 0.51 0.36 0.69 0.43 1.25 0.16 1.25-0.27 0-1.1-1.24-1.84-2.75-0.73-1.51-1.67-4.33-2.07-6.25-0.49-2.28-0.29-4.48 0.58-6.32 0.95-2.02 2.46-3.12 5.33-3.86 2.2-0.56 4.9-1.4 6-1.85 1.23-0.51 1.42-0.83 0.5-0.82-0.82 0-1.95 0.15-2.5 0.33zm224.5 55.09c-6.33 0.7-20.05 1.76-30.5 2.35-10.45 0.59-30.02 1.06-43.5 1.05-13.48-0.02-31.02-0.43-39-0.93-7.98-0.49-18.77-1.14-24-1.44-5.23-0.29-8.6-0.28-7.5 0.03 1.1 0.31 2.45 0.98 3 1.48 0.63 0.59 0.18 0.92-1.25 0.91-1.24-0.01-2.25 0.43-2.25 0.98 0 0.55 0.03 1.34 0.06 1.75 0.03 0.41-0.98 1.05-2.25 1.41-1.81 0.52-1.55 0.65 1.19 0.6 1.93-0.04 8.23 1.13 14 2.6 5.77 1.47 14.55 3.09 19.5 3.6 4.95 0.51 17.1 1.23 27 1.59 12.39 0.45 25.56 0.15 42.25-0.95 13.34-0.88 25.49-2.08 27-2.68 1.51-0.59 9.16-2.39 17-4 7.84-1.6 15.15-3.37 16.25-3.92 1.36-0.68 1.76-1.51 1.25-2.59-0.49-1.03-1.45-1.38-2.75-0.98-1.55 0.47-1.83 0.27-1.25-0.91 0.53-1.08 0.25-1.48-1-1.38-0.96 0.08-6.92 0.72-13.25 1.43zm-236.45 24.7c-2.17 1.22-5.48 4.25-7.36 6.73-3.04 4-3.38 5.06-3.05 9.56 0.25 3.57 1.17 6.15 3.11 8.75 1.51 2.03 4.21 4.42 6 5.3 1.79 0.89 5.27 1.85 7.75 2.15 3.63 0.43 5.47 0.02 9.5-2.14 2.75-1.47 6.12-4.31 7.5-6.32 1.87-2.74 2.49-4.93 2.47-8.73q-0.03-5.07-2.15-8.57c-1.17-1.93-4.31-4.72-6.97-6.22-3-1.68-6.38-2.72-8.85-2.73-2.32-0.01-5.66 0.92-7.95 2.22z"/>
			<path id="Path 12" fill-rule="evenodd" class="s12" d="m753.5 91.56c-3.85 2.43-11.61 7.45-17.25 11.16-5.64 3.7-10.25 7.08-10.25 7.51 0 0.42-0.45 0.55-1 0.27-0.55-0.28-1-0.28-1 0 0 0.28 2.19 1.51 4.87 2.75l4.87 2.25c-0.19-3.32 0.1-4.1 0.51-3.89 0.41 0.21 2.89-1.23 5.5-3.22 2.61-1.99 4.98-3.86 5.25-4.16 0.27-0.3-0.06-0.25-0.75 0.11-0.69 0.36-1.48 0.21-1.75-0.34-0.27-0.55-0.95-0.78-1.5-0.5-0.55 0.28-0.67 1.06-0.26 1.75q0.73 1.24-0.5 0.5c-0.68-0.41-0.91-1.31-0.51-2 0.41-0.69 0.75-1.65 0.75-2.15 0.01-0.49 0.71-1.17 1.55-1.5 0.85-0.33 5.46-3.19 10.25-6.35 4.8-3.16 8.72-5.97 8.72-6.25 0-0.28-0.11-0.47-0.25-0.43-0.14 0.03-3.4 2.05-7.25 4.49zm-35.75 24.47c-0.96 0.53-2.31 0.63-2.99 0.22q-1.23-0.74-0.5 0.5c0.41 0.69 1.37 1.03 2.14 0.76 0.76-0.27 1.21-0.04 1 0.5-0.22 0.55-1.3 0.77-2.4 0.49-1.1-0.28-2-0.05-2 0.5 0 0.55-0.45 0.78-1 0.5-0.62-0.31-0.73 0.36-0.29 1.75 0.52 1.63 0.38 2.04-0.5 1.5-0.67-0.41-1.21-0.3-1.21 0.25 0 0.55 0.45 1.22 1 1.5 0.55 0.28 0.77 0.95 0.5 1.5-0.27 0.55 0.47 2.01 1.65 3.25 1.18 1.24 1.85 1.69 1.5 1-0.52-1-0.25-1 1.35 0 1.11 0.69 2.01 1.59 2 2 0 0.41 0.45 0.53 1 0.25 0.55-0.28 1-0.05 1 0.5 0 0.55 0.67 1.22 1.5 1.5 0.83 0.28 1.27 0.05 1-0.5-0.27-0.55 0.17-0.78 1-0.5 0.83 0.28 1.27 0.95 1 1.5-0.3 0.6 0.2 0.71 1.25 0.27 1.24-0.52 1.53-0.37 1 0.5-0.54 0.88-0.12 1.07 1.5 0.64 1.85-0.48 1.98-0.38 0.75 0.57-1.23 0.95-1.1 1.05 0.75 0.59q2.24-0.56 2.75 0.93c0.27 0.82 1.62 1.5 3 1.5 1.37 0 2.27 0.45 2 1-0.3 0.6 0.2 0.71 1.25 0.27 1.24-0.52 1.53-0.37 1 0.5-0.44 0.72-0.13 1.44 0.75 1.73 0.94 0.31 1.29 0.04 0.93-0.75-0.32-0.69 0.14-0.35 1.01 0.75 0.88 1.1 1.59 1.55 1.59 1 0-0.55 0.33-0.48 0.74 0.15 0.4 0.63 2.98 2.33 5.73 3.77 2.75 1.45 6 2.62 7.22 2.6 1.22-0.01 3.69-1.51 5.5-3.34 1.8-1.83 3.08-3.96 2.83-4.75-0.29-0.92-0.02-1.16 0.75-0.68 0.66 0.41 1.2 0.64 1.2 0.5 0-0.14-0.45-1.71-1-3.5q-1-3.25 0-3.75c0.56-0.28 0.23-1.12-0.75-1.91-0.96-0.78-2.09-1.23-2.5-1-0.41 0.22-0.56 0.97-0.32 1.66 0.23 0.69 0.01 2.6-0.5 4.25-0.9 2.94-0.92 2.94-0.68 0.27 0.14-1.5-0.09-2.74-0.5-2.75-0.41-0.01-0.75 1.33-0.75 2.98v3c-8.53-3.41-10.22-3.67-10.75-2.89-0.41 0.61-1.42 0.89-2.25 0.62-0.83-0.27-2.29-0.1-3.25 0.39q-1.75 0.87-4.5-0.68c-1.51-0.86-1.96-1.31-1-1 0.96 0.31 2.54 0.81 3.5 1.12 0.96 0.31 0.4-0.19-1.25-1.12-2.32-1.31-3.4-1.44-4.75-0.57-1.36 0.88-1.58 0.85-1.01-0.12q0.73-1.24-0.5-0.5c-0.7 0.42-2.13-0.02-3.27-1-1.56-1.34-1.73-1.94-0.75-2.59 0.79-0.51 0.41-0.61-0.97-0.25q-2.25 0.59-2.75-0.91c-0.4-1.21 0.23-1.41 3.25-1.02 2.06 0.26 3.36 0.15 2.89-0.25-0.47-0.4-2.49-0.96-4.5-1.25-2-0.28-3.64-1.08-3.64-1.76 0-0.69-1.13-2.03-2.5-2.99-1.38-0.95-2.6-2.63-2.73-3.73-0.13-1.1-0.33-3.01-0.44-4.25-0.12-1.24-0.24-2.24-0.27-2.22-0.03 0.02-0.85 0.47-1.81 1zm-218.25 217.7c2.2 0.21 6.02 0.21 8.5 0 2.48-0.21 0.68-0.38-4-0.38-4.68 0-6.7 0.17-4.5 0.38zm147.47 6.7c-1.08 2.79-1.96 5.41-1.97 5.82 0 0.41 3.49 1.83 7.75 3.15 4.26 1.32 8.65 2.56 9.75 2.75 1.1 0.19 2.56 0.91 3.25 1.6 0.69 0.69 1.92 1.25 2.75 1.25 0.83 0 2.17 1.35 3 3 0.98 1.95 1.24 3.94 0.75 5.71-0.41 1.49-1.99 3.96-3.5 5.5-2.47 2.5-2.58 2.92-1.14 4.04 1.32 1.03 1.54 0.99 1.25-0.25-0.2-0.82 0.2-1.39 0.89-1.25 0.69 0.14 1.02-0.2 0.75-0.75-0.27-0.55-0.05-1 0.5-1 0.55 0 0.99 0.56 0.98 1.25 0 0.69-0.34 1.75-0.75 2.37-0.4 0.61-1.74 1.4-2.98 1.75-1.42 0.4-2.16 0.22-2-0.49 0.14-0.61-0.65-1.29-1.75-1.49l-2-0.39 4 4.08c-5.13 5-5.71 5.19-6.52 3.92-0.75-1.18-0.96-0.97-0.98 1-0.02 1.38-0.59 4.21-1.27 6.31-0.67 2.09-1.57 3.78-1.98 3.75-0.41-0.04-1.09-0.08-1.5-0.1-0.41-0.03-0.19 0.53 0.49 1.25 0.69 0.71 0.91 1.66 0.5 2.12-0.41 0.45 0.16 1.3 1.26 1.88 1.94 1.03 1.93 1.1-0.5 2.39-1.48 0.79-1.89 1.36-1 1.39 1.18 0.06 1.13 0.28-0.25 1.04-1.53 0.85-1.57 1.19-0.33 2.72 0.78 0.96 3.51 6.93 6.07 13.25 2.56 6.32 5.95 13.52 7.53 16 1.58 2.48 4.25 7.54 5.93 11.25 1.8 3.98 3.67 6.75 4.55 6.75 0.83 0 2.17-0.23 3-0.5 0.83-0.27 1.51-1.06 1.52-1.75 0.01-1-0.23-1-1.2 0-0.67 0.69-1.69 1.27-2.27 1.29-0.63 0.03-0.55-0.47 0.19-1.25 0.68-0.71 1.36-3.87 1.5-7.03 0.14-3.16-0.08-5.75-0.49-5.75-0.41-0.01-1.01-5.3-1.32-11.76-0.32-6.46-0.56-14.23-0.54-17.25 0.02-3.02 0.51-5.95 1.09-6.5 0.58-0.55 1.04-1.9 1.03-3-0.02-1.1 1.44-3.27 3.23-4.83 2.71-2.35 3.01-2.99 1.76-3.79-1.33-0.86-1.33-0.94 0-0.72 0.83 0.13 4.09-2.32 7.25-5.46 3.16-3.13 6.2-5.47 6.75-5.2 0.55 0.27 0.78-0.06 0.52-0.75-0.27-0.69 0.75-3.86 2.25-7.06l2.73-5.8c2.78 3.62 2.39 2.25 0.87-0.89-1.46-3.02-3.38-6.03-4.27-6.67-0.88-0.64-1.6-1.72-1.6-2.39 0-0.67-0.9-1.72-2-2.33-1.1-0.61-2.23-1.39-2.5-1.73-0.27-0.34-2.86-1.8-5.75-3.25-2.89-1.45-6.04-2.79-7-2.98-0.96-0.2-3.44-1.1-5.5-2-2.06-0.91-4.2-1.42-4.75-1.15-0.55 0.27-1.23 0.05-1.5-0.5-0.27-0.55-1.17-0.77-2-0.5-0.83 0.27-1.5 0.05-1.5-0.5 0-0.55-0.67-0.77-1.5-0.5-0.83 0.27-1.74 0.11-2.04-0.37-0.29-0.47-1.75-0.66-3.25-0.42-2.12 0.35-2.38 0.22-1.21-0.62q1.52-1.07 0.25-1.07c-0.69-0.01-1.48 0.43-1.75 0.98-0.27 0.55-0.95 0.77-1.5 0.5-0.55-0.27-0.67-1.06-0.26-1.75q0.73-1.24-0.5-0.5c-0.68 0.41-1.8 0.43-2.49 0.04-0.69-0.39-2.05-0.76-3.04-0.82-1.26-0.09-2.35 1.36-3.74 4.96zm-320.42 49.73c-1.62 0.55-2.86 1.42-2.75 1.92 0.11 0.51-0.47 1.6-1.3 2.42-0.82 0.83-2.06 1.31-2.75 1.09-0.69-0.23-1.71-0.12-2.26 0.25-0.56 0.36-3.04 3.14-5.5 6.16-2.47 3.02-4.83 5.61-5.24 5.75-0.41 0.14-0.52 0.7-0.25 1.25 0.27 0.55 0.05 1-0.5 1-0.55 0-1-0.56-0.99-1.25 0-0.69-0.78-0.12-1.73 1.25-0.96 1.38-1.75 2.95-1.76 3.5-0.01 0.55-1.49 2.58-3.28 4.5-1.79 1.93-3.25 3.84-3.25 4.25 0.01 0.41 0.09 0.86 0.18 1 0.09 0.14-0.36 1.26-1 2.5-0.66 1.27-0.74 2.03-0.17 1.75 0.55-0.27 1.23 0.18 1.5 1q0.48 1.48-0.75 0.81c-0.69-0.38 0.77 1.26 3.25 3.64 2.48 2.39 6.75 5.78 9.5 7.54 2.75 1.76 7.36 4.39 10.25 5.85 2.89 1.46 5.17 2.32 5.06 1.91-0.1-0.41 0.17-2.77 0.61-5.25 0.43-2.48 1.59-8.1 2.56-12.5 0.98-4.4 2.32-11.82 2.98-16.5 0.67-4.67 1.86-10.52 2.66-13 0.8-2.48 1.27-5.85 1.06-7.5-0.27-2.1-0.88-2.93-2.03-2.75-0.91 0.14-1.44-0.2-1.19-0.75 0.26-0.55 0.37-0.96 0.25-0.92-0.11 0.04-1.54 0.53-3.16 1.08z"/>
			<path id="Path 13" fill-rule="evenodd" class="s13" d="m697.92 148.28c-2.98 3.97-5.62 7.66-5.87 8.22q-0.45 1 0.99 0c1.06-0.74 1.24-0.67 0.7 0.25-0.41 0.69-1.08 1.04-1.49 0.79-0.41-0.26-1.84 0.85-3.16 2.46-1.33 1.6-2.34 3.39-2.25 3.96 0.09 0.57-0.51 1.26-1.34 1.54-0.83 0.28-1.5 1.18-1.5 2 0 0.82-0.56 1.51-1.25 1.52q-1.24 0.01 0.25 0.94c1.27 0.79 1.19 1.05-0.5 1.69-1.1 0.41-2.77 1.67-3.72 2.8-0.94 1.13-1.73 2.61-1.75 3.3-0.02 0.69-0.37 1.25-0.78 1.26-0.41 0-1.87 1.58-3.25 3.51-1.37 1.94-2.27 3.73-2 3.98 0.28 0.26 2.43-1.44 4.78-3.77 2.36-2.32 4.27-4.57 4.25-4.98-0.02-0.41 0.98-2.08 2.22-3.71 1.24-1.63 2.59-2.76 3-2.5 0.41 0.25 0.53-0.22 0.25-1.04-0.27-0.82-0.05-1.5 0.5-1.5 0.55 0 0.81-0.56 0.59-1.25-0.23-0.69 0.67-2.71 2-4.5 1.37-1.85 3.16-3.14 4.15-3 1.26 0.18 1.74-0.45 1.75-2.32 0-1.42 1.14-4.2 2.51-6.18 1.38-1.98 2.95-3.3 3.49-2.93 0.58 0.4 0.69 0.17 0.25-0.57-0.42-0.71 0.13-2.34 1.26-3.75 1.1-1.38 1.85-2.71 1.67-2.97-0.18-0.25-2.77 2.78-5.75 6.75zm-35.76 51.22c-3.94 6.32-7.16 11.95-7.16 12.5 0 0.55-0.45 1-1 1-0.55 0-1.02 0.56-1.04 1.25-0.04 0.89 0.41 0.82 1.55-0.25 0.88-0.82 1.87-2.4 2.19-3.5 0.33-1.1 1.16-2.45 1.84-3 0.69-0.55 2.39-3.25 3.77-6 1.38-2.75 2.71-4.55 2.94-4 0.23 0.55 0.27 0.44 0.09-0.25-0.19-0.69 0.11-1.47 0.66-1.75 0.55-0.28 1.22 0.06 1.49 0.75 0.27 0.69 0.26 0.35-0.03-0.75-0.29-1.13 0.34-3.19 1.47-4.75 1.1-1.51 1.63-2.75 1.19-2.75-0.45 0-4.03 5.18-7.96 11.5zm-12.48 19.5c-0.93 1.65-1.45 3.45-1.18 4 0.28 0.55 1.06 0.96 1.75 0.92 1-0.06 1-0.16 0-0.5-0.69-0.23-1.25-0.87-1.25-1.42 0-0.55 0.79-0.7 1.75-0.34 0.96 0.36 1.41 0.36 1 0-0.41-0.36-0.08-1.34 0.75-2.16 0.83-0.82 1.28-1.95 1-2.5-0.27-0.55-0.87-1-1.32-1-0.46 0-1.58 1.35-2.5 3zm-5.03 8.89c-1.49 2.24-2.7 4.42-2.7 4.84 0 0.42-0.62 1.45-1.39 2.27-0.76 0.82-1.53 2.4-1.72 3.5-0.19 1.1-1.12 2.68-2.07 3.5-0.96 0.82-1.41 1.85-1 2.28 0.4 0.43 0.17 0.76-0.52 0.75-0.69-0.02-1.02 0.42-0.75 0.97 0.28 0.55 1.06 0.67 1.75 0.26q1.24-0.73 0.5 0.5c-0.41 0.68-1.09 1.04-1.5 0.81-0.41-0.24-1.32-0.13-2.02 0.25-0.7 0.37-1.41 1.36-1.58 2.18-0.18 0.82-0.96 2.75-1.73 4.28-0.78 1.53-1.76 2.76-2.17 2.75-0.41-0.02-0.64 0.49-0.5 1.13 0.14 0.64-0.57 2.1-1.58 3.25-1 1.15-5.86 9.74-10.78 19.09-4.92 9.35-11.19 21.61-13.92 27.25-2.73 5.64-4.74 10.48-4.47 10.75 0.28 0.27 1.85-1.52 3.5-4 1.65-2.48 2.78-4.95 2.5-5.5-0.27-0.55 0.17-1.68 1-2.5 1.06-1.06 1.49-1.13 1.46-0.25-0.04 0.89 0.41 0.82 1.54-0.25 0.87-0.82 1.57-1.84 1.54-2.25-0.02-0.41-0.72-0.41-1.56 0-1.19 0.59-1.41 0.26-1-1.5 0.37-1.61 1.02-2.08 2.27-1.66q1.8 0.62 0.41-0.25c-1.08-0.68-0.95-1.6 0.71-4.84 1.44-2.83 2.06-3.41 2.12-2l0.07 2c1.71-3.1 2.29-4.9 2.38-6 0.08-1.1 0.47-2.56 0.86-3.25 0.38-0.69 0.36-1.23-0.05-1.21-0.41 0.03 0.28-0.76 1.54-1.75 1.27-0.98 2.4-2.92 2.53-4.29 0.12-1.38 1.11-3.85 2.2-5.5 1.08-1.65 2.58-4.35 3.32-6 0.74-1.65 2.82-4.8 4.63-7 1.8-2.2 4.08-5.57 5.05-7.5 0.98-1.93 2.95-5.07 4.38-7 1.43-1.93 1.79-2.82 0.8-2-0.98 0.82-1.78 1.05-1.78 0.5 0.01-0.55 0.92-1.9 2.03-3 1.11-1.1 1.8-2.34 1.53-2.75-0.26-0.41 0.51-2.44 1.73-4.5 1.21-2.06 2.49-3.97 2.85-4.25 0.35-0.28 1.16-1.51 1.79-2.75 0.63-1.24 1-2.52 0.83-2.84-0.18-0.33-1.54 1.23-3.03 3.48zm-53.92 100.41c-2.07 4.51-3.64 8.31-3.5 8.44 0.15 0.13 0.93-0.99 1.73-2.5 0.81-1.51 2.27-3.98 3.25-5.49 0.99-1.51 2.35-2.64 3.04-2.5 0.76 0.15 1.2-0.74 1.13-2.25-0.06-1.37 0.39-2.83 1-3.23 0.67-0.44 0.31-0.73-0.88-0.71-1.52 0.02-2.9 1.99-5.77 8.24zm-292.73 526.62c-1.92 1.01-5.19 3.69-7.25 5.96-2.06 2.27-4.03 5.36-4.37 6.87-0.34 1.51-0.34 4.21 0 6 0.37 1.94 2.47 5.17 5.19 8 2.52 2.61 4.38 4.3 4.15 3.75q-0.43-1 1.84 0c1.25 0.55 2.08 1.34 1.85 1.75-0.22 0.41 0.49 0.75 1.59 0.75 1.1 0 2.23 0.45 2.5 1 0.28 0.55 1.18 0.77 2 0.5 0.83-0.27 2.29-0.11 3.25 0.36 0.96 0.48 6.48 2.43 12.25 4.34 6.06 2 10.39 3.96 10.25 4.63-0.16 0.75 0.66 0.99 2.25 0.67 1.55-0.31 2.97 0.09 3.75 1.04 0.79 0.98 2.83 1.53 5.5 1.5 2.34-0.02 7.06 0.84 10.5 1.92 3.44 1.08 18.85 4.44 34.25 7.48 15.4 3.04 32.05 5.99 37 6.57 4.95 0.57 15.53 1.7 23.5 2.5 7.98 0.8 26.43 1.98 41 2.64 20.48 0.91 32.97 0.91 55-0.01 15.68-0.66 36.38-2.08 46-3.16 9.63-1.08 19.75-2.41 22.5-2.95 2.75-0.54 5.05-1.1 5.11-1.25 0.06-0.16 0.4-2.42 0.75-5.03 0.39-2.93 0.26-4.75-0.36-4.75-0.55 0-1.04 0.56-1.09 1.25-0.05 0.69-0.5-0.21-1-2-0.51-1.82-1.57-3.25-2.41-3.25-0.82 0-1.5-0.45-1.5-1 0-0.55 0.79-1.12 1.75-1.26 1.24-0.19 0.59-0.97-2.25-2.68-3.31-2-5.38-2.43-12-2.48-4.4-0.04-15.65 0.55-25 1.31-12.27 0.99-26.89 1.23-52.5 0.83-20.71-0.31-42.79-1.23-53-2.19-9.62-0.91-19.07-1.88-21-2.16-2.62-0.38-3.12-0.73-2-1.4 0.94-0.55-0.73-0.72-4.5-0.44-4.39 0.32-5.33 0.19-3.5-0.48 1.76-0.65 0.87-0.73-3-0.29-3.38 0.39-5.25 0.26-4.85-0.32 0.39-0.56-2.05-0.99-6-1.06-3.66-0.07-12.5-1.34-19.65-2.82-7.15-1.49-16.6-3.59-21-4.68-4.4-1.08-10.92-2.92-14.5-4.09-3.57-1.17-7.06-2.73-7.75-3.46-0.69-0.73-1.47-1.33-1.75-1.33-0.27 0-0.16 0.53 0.25 1.17 0.56 0.87-0.4 0.97-3.75 0.39-2.47-0.43-5.96-1.41-7.75-2.17-1.79-0.77-3.02-1.84-2.75-2.39 0.28-0.55-0.17-1-1-1-0.82 0-1.27 0.45-1 1 0.3 0.59-0.21 0.72-1.25 0.32-0.96-0.38-4-2.39-6.75-4.48-2.75-2.08-5.56-3.8-6.25-3.81-0.69-0.02-1.07-0.37-0.85-0.78 0.23-0.41-0.11-0.82-0.75-0.9-0.63-0.08-5.09-1.54-9.9-3.25-4.81-1.7-10.44-3.08-12.5-3.06-2.06 0.03-5.32 0.87-7.25 1.88z"/>
			<path id="Path 14" fill-rule="evenodd" class="s14" d="m736.9 825.89c-1.32 1.03-6.23 4.26-10.9 7.17-4.67 2.91-15.02 8.54-23 12.51-7.97 3.98-20.35 9.34-27.5 11.92-7.15 2.59-18.17 6.19-24.5 8.01-6.33 1.82-13.19 3.58-15.25 3.91-2.06 0.32-3.75 1.04-3.75 1.59 0 0.58-0.94 0.7-2.25 0.29-1.81-0.57-2.06-0.44-1.25 0.7 0.82 1.16 0.5 1.29-1.75 0.71-1.63-0.42-2.75-0.29-2.75 0.3 0 0.57-1.4 0.78-3.25 0.48-2.69-0.43-2.91-0.34-1.25 0.52 1.58 0.82 1.16 0.92-2 0.49-3.2-0.44-3.77-0.29-2.86 0.73 0.89 1.01 0.58 1.21-1.5 0.95-2.03-0.25-2.29-0.1-1.14 0.67 1.27 0.84 1.2 1.07-0.5 1.54-1.1 0.3-0.42 0.33 1.5 0.07 1.92-0.26 5.08-0.17 7 0.2 2.99 0.58 3.21 0.79 1.5 1.47-1.1 0.43 6.33 0.65 16.5 0.47 10.17-0.17 19.96-0.6 21.75-0.95 1.79-0.35 3.25-1.09 3.25-1.64 0-0.55 0.9-1.23 2-1.5 1.1-0.27 2-0.05 2 0.5 0 0.55-0.79 1.17-1.75 1.38-0.96 0.22-0.06 0.44 2 0.5 2.06 0.07 3.75-0.33 3.75-0.88 0-0.55-0.79-1.17-1.75-1.38-1.39-0.31-1.33-0.41 0.3-0.5 1.13-0.07 2.48-0.53 3-1.04 0.52-0.5 2.53-1.07 4.45-1.25 1.92-0.18 3.73-0.56 4-0.85 0.27-0.28 3.65-1.35 7.5-2.38 3.85-1.03 8.8-2.24 11-2.69 2.2-0.45 7.49-0.84 11.75-0.87 6.55-0.03 7.83 0.23 8.25 1.71 0.27 0.96 0.04 3.33-0.52 5.25-0.56 1.92-2.23 5.3-3.72 7.5-1.49 2.2-3.42 5.35-4.29 7-1.16 2.21-4.08 4.25-11.02 7.71-6.65 3.32-14.2 5.95-25.45 8.86-8.8 2.28-18.14 4.66-20.76 5.29-2.62 0.63-4.76 1.48-4.75 1.89 0.01 0.41-1 0.49-2.24 0.16-1.36-0.35-1.76-0.25-1.02 0.25 0.82 0.55-0.89 1.59-5 3.03-3.42 1.21-8.7 2.53-11.73 2.94-3.02 0.41-5.84 0.66-6.25 0.56-0.41-0.11-0.75 0.26-0.75 0.81 0 0.55-0.56 0.84-1.25 0.65-0.69-0.2-1.92 1.01-2.75 2.67-0.97 1.95-2.74 3.43-5 4.16-2.65 0.86-3.99 2.16-5.5 5.37-1.1 2.32-2.9 4.71-4 5.3-1.69 0.92-1.77 1.21-0.5 1.95 1.21 0.7 1.11 0.87-0.5 0.86-1.1-0.01-1.77 0.2-1.5 0.47 0.28 0.27 6.13-0.37 13-1.41 6.88-1.04 19.92-3.48 29-5.43 9.08-1.95 23.48-5.55 32-8 8.53-2.45 19.33-5.81 24-7.47 4.67-1.65 13.23-5.06 19-7.58 5.78-2.51 14.1-6.7 18.49-9.31 4.46-2.64 11.36-8.04 15.6-12.23 5.91-5.83 8.08-8.78 9.76-13.25 1.19-3.19 2.15-8.09 2.16-11 0-2.89-0.68-7.84-1.5-11-0.83-3.16-2.9-8.11-4.59-11-1.7-2.89-6.31-8.52-10.25-12.51-3.94-3.99-7.44-7.25-7.77-7.25-0.33 0.01-1.68 0.86-3 1.9z"/>
			<path id="Path 15" fill-rule="evenodd" class="s2" d="m718.5 139.56c1.48 1.09 1.61 1.47 0.5 1.47-1.33 0-1.33 0.12 0 1.07 1.17 0.84 0.95 0.94-1 0.46-2.15-0.53-2.33-0.4-1.25 0.91 1 1.22 1 1.6 0 1.87-1 0.27-0.99 0.62 0.01 1.75 1.05 1.17-2.22 6.65-19.03 31.91-11.17 16.78-24.17 37.03-28.89 45-4.73 7.97-12.71 22.15-17.74 31.5-5.03 9.35-9.84 18.12-10.68 19.5-0.85 1.37-8.07 15.77-16.05 32-7.98 16.23-16.67 33.77-19.32 39-2.65 5.23-6.11 11.83-7.68 14.67-2.71 4.88-3.19 5.25-8.37 6.35-3.02 0.65-7.61 1.69-10.18 2.33-2.62 0.64-4.42 1.59-4.08 2.15 0.33 0.55-0.26 0.24-1.32-0.68-1.83-1.6-1.93-1.55-2.1 1-0.1 1.47-0.77 3.13-1.5 3.68-0.73 0.55-1.44 2.24-1.58 3.75-0.18 2.12 0.28 2.88 2.01 3.34 1.24 0.32 8.33-0.16 15.75-1.08 7.42-0.92 17.33-2.32 22-3.12 4.67-0.8 9.17-1.65 10-1.89 0.83-0.24 2.58-3.04 3.91-6.22 1.32-3.18 8.2-18.16 15.28-33.28 7.08-15.13 17.88-36.95 23.98-48.5 6.11-11.55 14.47-26.85 18.59-34 4.11-7.15 10.65-18.4 14.53-25 3.89-6.6 11.09-18.53 16.02-26.5 4.92-7.97 14.63-22.97 21.57-33.32 7.96-11.87 12.25-19.14 11.62-19.68-0.55-0.48-6.85-3.35-14-6.39-7.15-3.03-12.1-4.86-11-4.05z"/>
			<path id="Path 16" fill-rule="evenodd" class="s15" d="m699 867.97c-1.92 0.41-6.65 1.59-10.5 2.62-3.85 1.03-7.23 2.11-7.5 2.39-0.27 0.29-2.08 0.67-4 0.85-1.92 0.18-3.93 0.75-4.45 1.25-0.52 0.51-1.87 0.97-3 1.04-1.63 0.09-1.69 0.19-0.3 0.5 0.96 0.21 1.75 0.83 1.75 1.38 0 0.55-1.69 0.95-3.75 0.88-2.06-0.06-2.96-0.28-2-0.5 0.96-0.21 1.74-0.79 1.74-1.29-0.01-0.49-0.92-0.67-2.02-0.38-1.1 0.29-1.99 0.92-1.98 1.41 0 0.48-1.45 1.17-3.24 1.52-1.79 0.35-11.58 0.78-21.75 0.95-10.17 0.18-17.75-0.04-16.83-0.48 1.32-0.63 1.01-0.94-1.5-1.47-1.74-0.36-4.52-0.49-6.17-0.28-1.65 0.21-2.33 0.18-1.5-0.07 1.33-0.41 1.33-0.57 0-1.45-1.1-0.73-0.7-0.85 1.5-0.46q3.02 0.54 2-0.48c-0.68-0.69-4.72-0.49-12.5 0.61-6.33 0.9-12.52 2.16-13.76 2.81-1.63 0.85-1.91 1.39-1 1.91 0.69 0.41 2.5 0.75 4.01 0.75 1.51 0.01 2.52 0.47 2.25 1.02-0.27 0.55 0.17 1.22 1 1.5 0.83 0.27 1.5 0.05 1.5-0.5 0-0.55 0.67-0.78 1.5-0.5 0.83 0.27 1.5 0.05 1.5-0.5 0-0.55 0.56-1 1.25-1.01 0.69 0 2.04 0.9 3 2 1.71 1.96 1.67 2.01-1.5 2.13-1.79 0.06-2.46 0.28-1.5 0.5 0.96 0.21 1.75 0.83 1.75 1.38 0 0.55 1.69 0.96 3.75 0.9 3.03-0.08 3.29-0.22 1.36-0.75-1.97-0.53-2.15-0.85-1-1.8 0.76-0.63 4.99-1.52 9.39-1.97 7.64-0.79 7.8-0.85 3.5-1.45-2.48-0.35 3.83-0.67 14-0.71 10.9-0.05 17.68 0.27 16.5 0.77-1.74 0.73-1.55 0.94 1.5 1.59 3.05 0.65 3.24 0.85 1.5 1.6-1.55 0.66-1.32 0.75 1 0.42 2.53-0.36 2.73-0.25 1.29 0.74-0.94 0.64-1.73 1.72-1.75 2.41-0.02 0.69 1.42 1.71 3.21 2.27 1.79 0.56 5.61 1.01 8.5 1 3.64-0.01 5.02 0.32 4.5 1.09-0.41 0.61-0.08 1.51 0.75 2 1.33 0.79 1.33 1 0 1.84-0.83 0.52-4.88 1.69-9 2.59-4.13 0.9-9.3 2.29-11.5 3.08-2.2 0.79-6.7 1.62-10 1.84-5.48 0.37-6.19 0.69-8.24 3.72-1.64 2.44-1.91 3.49-1 3.96 0.68 0.35-1.24 0.99-4.26 1.41-3.02 0.42-5.73 0.84-6 0.93-0.27 0.09-1.63 0.66-3 1.26-1.38 0.6-9.02 1.83-17 2.74-7.98 0.9-19.45 2.06-25.5 2.59-6.05 0.53-24.95 1.24-42 1.59-19.15 0.38-39.99 0.17-54.5-0.56-12.93-0.65-30.02-1.95-38-2.89-7.98-0.93-17.43-1.67-21-1.63-3.96 0.04-5.72-0.22-4.5-0.68 1.54-0.58 1.07-0.82-2-1.04-2.2-0.15-6.25-0.38-9-0.51-2.75-0.13-7.93-0.5-11.5-0.82-4.65-0.42-7.56-0.15-10.25 0.94-2.06 0.84-3.75 1.98-3.75 2.53 0 0.55-0.9 1-2 1-1.1 0-1.77 0.45-1.5 1 0.29 0.58-1.1 1-3.3 1-2.09 0-4.23 0.46-4.75 1.01-0.52 0.56-2.82 1.12-5.11 1.25-2.29 0.13-3.64 0.57-3 0.97 0.7 0.45 0.26 0.75-1.09 0.75-1.84 0.02-2.02 0.27-1 1.37 0.69 0.74 7.1 2.73 14.25 4.43 7.15 1.7 19.52 4.23 27.5 5.62 7.98 1.39 19.45 3.19 25.5 4.01 6.05 0.81 18.87 2.26 28.5 3.23 13.67 1.36 26.58 1.74 59 1.71 34.08-0.03 45.61-0.41 64.5-2.14 12.65-1.16 24.12-2.56 25.5-3.1 1.37-0.54 1.83-1.03 1-1.08-1.14-0.07-1.03-0.45 0.5-1.61 1.1-0.84 2.9-3.39 4-5.67 1.49-3.09 2.89-4.43 5.5-5.27 2.26-0.73 4.03-2.21 5-4.16 0.83-1.66 2.06-2.87 2.75-2.67 0.69 0.19 1.25-0.1 1.25-0.65 0-0.55 0.34-0.92 0.75-0.81 0.41 0.1 3.23-0.15 6.25-0.56 3.02-0.41 8.31-1.73 11.73-2.94 4.11-1.44 5.82-2.48 5-3.03-0.74-0.5-0.34-0.6 1.02-0.25 1.24 0.33 2.25 0.25 2.24-0.16-0.01-0.41 2.13-1.26 4.75-1.89 2.62-0.63 11.96-3.01 20.76-5.29 11.25-2.91 18.8-5.54 25.45-8.86 6.94-3.46 9.86-5.5 11.02-7.71 0.87-1.65 2.8-4.8 4.29-7 1.49-2.2 3.16-5.58 3.72-7.5 0.56-1.92 0.79-4.29 0.52-5.25-0.43-1.5-1.69-1.73-8.75-1.64-4.54 0.07-9.83 0.45-11.75 0.86z"/>
			<path id="Path 17" fill-rule="evenodd" class="s16" d="m705.92 137.58c-1.33 1.42-2.42 3.33-2.42 4.25 0 0.91-0.67 1.67-1.5 1.67-0.96 0-1.5 0.96-1.5 2.66 0 1.94-0.34 2.41-1.25 1.75-0.79-0.58-1.52-0.46-2 0.33q-0.74 1.23 0.5 0.5c0.69-0.41 1.25-0.29 1.25 0.26 0 0.55-0.56 1.33-1.25 1.73-0.69 0.41-1.55 0.75-1.92 0.75-0.36 0.01-1.04 0.43-1.5 0.93-0.48 0.53-0.3 0.63 0.42 0.25 0.69-0.36 1.26-0.32 1.28 0.09 0.02 0.41-0.77 1.54-1.75 2.5-0.98 0.97-2.19 1.42-2.69 1-0.51-0.42-0.62-0.19-0.25 0.5 0.53 1 0.97 1 2.23 0 1.35-1.08 1.51-0.91 1.13 1.25-0.28 1.62-1.01 2.41-2.07 2.25-0.9-0.14-2.72 1.21-4.04 3-1.33 1.79-2.23 3.81-2 4.5 0.22 0.69-0.04 1.25-0.59 1.25-0.55 0-0.77 0.67-0.5 1.5 0.28 0.82 0.16 1.29-0.25 1.04-0.41-0.26-1.76 0.87-3 2.5-1.24 1.63-2.23 3.3-2.21 3.71 0.02 0.41-1.8 2.55-4.04 4.75-2.24 2.2-4.51 3.89-5.04 3.75-0.53-0.14-0.73 0.2-0.46 0.75 0.28 0.55-0.29 2.11-1.25 3.47-0.96 1.36-2.15 2.14-2.64 1.75-0.48-0.4-0.37 0.29 0.25 1.53 0.63 1.24 0.9 2.59 0.61 3-0.29 0.41-0.51 0.3-0.5-0.25 0.02-0.55-0.6-1-1.37-1-0.78 0-1.28 0.22-1.12 0.5 0.16 0.27-0.11 1.51-0.6 2.75-0.48 1.24-1.33 2.02-1.88 1.75-0.55-0.28-1.33 0.06-1.74 0.75q-0.73 1.24 0.5 0.5c0.68-0.41 1.24-0.53 1.24-0.25 0 0.27-0.67 1.85-1.5 3.5-0.83 1.65-1.84 3.11-2.25 3.25-0.41 0.14-1.47 1.6-2.34 3.25-0.88 1.65-2.12 2.89-2.75 2.75-0.83-0.18-0.88 0.31-0.16 1.75 0.74 1.48 0.61 2.39-0.5 3.5-0.83 0.82-1.16 1.74-0.75 2.03 0.41 0.29 0.3 0.52-0.25 0.51-0.55 0-1.59-0.58-2.31-1.27-1.07-1.04-1.16-0.9-0.52 0.73 0.64 1.62 0.51 1.81-0.68 1-1.15-0.78-1.28-0.67-0.62 0.5 0.51 0.91 0.31 2.6-0.51 4.3-0.78 1.61-1.89 2.57-2.61 2.25-0.69-0.3-1.02-0.1-0.75 0.45 0.28 0.55-0.4 2.57-1.5 4.5-1.1 1.92-1.78 3.84-1.52 4.25 0.27 0.41-0.42 1.65-1.53 2.75-1.11 1.1-2.02 2.45-2.03 3 0 0.55 0.8 0.32 1.78-0.5 0.99-0.83 0.63 0.07-0.8 2-1.43 1.92-3.4 5.07-4.38 7-0.97 1.92-3.25 5.3-5.05 7.5-1.81 2.2-3.89 5.35-4.63 7-0.74 1.65-2.13 4.24-3.09 5.75-1.07 1.67-2.24 2.48-3 2.06-0.99-0.55-0.99-0.39 0.01 0.75 0.92 1.05 0.98 2.18 0.25 4.19-0.56 1.51-1.73 3.09-2.6 3.5-0.87 0.41-1.55 1.09-1.5 1.5 0.05 0.41 0.06 0.86 0.02 1-0.04 0.14-0.2 1.37-0.36 2.75-0.17 1.37-0.8 3.4-1.4 4.5l-1.11 2c-0.13-3.41-0.75-2.83-2.19 0-1.66 3.24-1.79 4.16-0.71 4.84q1.39 0.87-0.41 0.25c-1.25-0.42-1.9 0.05-2.27 1.66-0.41 1.76-0.19 2.09 1 1.5 0.84-0.41 1.54-0.41 1.56 0 0.03 0.41-0.67 1.42-1.54 2.25-1.41 1.33-1.59 1.33-1.56 0 0.03-1.33-0.07-1.33-0.84 0-0.48 0.82-1.38 1.16-1.99 0.75-0.8-0.54-0.83-0.18-0.11 1.25 0.79 1.59 0.38 2.93-2 6.5-1.77 2.66-3.51 4.27-4.25 3.93-0.69-0.32-0.35 0.14 0.75 1.01 1.1 0.88 1.44 1.59 0.75 1.58-0.76-0.01-1.15 1.06-1 2.73 0.16 1.77-0.2 2.66-1 2.5-0.69-0.14-1.92 0.87-2.75 2.25-0.83 1.37-1.84 2.32-2.25 2.11-0.41-0.22-0.75 0.57-0.75 1.75 0 1.18-0.56 2.03-1.25 1.89q-1.24-0.24-0.52 1.5c0.52 1.24 0.37 1.53-0.5 1-0.72-0.44-1.44-0.13-1.73 0.75-0.27 0.82-0.17 2.29 0.23 3.25 0.52 1.24 0.37 1.53-0.5 1-0.71-0.43-1.28-0.22-1.35 0.5-0.06 0.69-0.06 1.59 0 2 0.07 0.41-0.33 0.75-0.88 0.75-0.55 0-0.77 0.45-0.5 1 0.28 0.55 0.05 1-0.5 1-0.55 0-1.54 1.69-2.2 3.75-0.67 2.06-1.12 4.09-1 4.5 0.11 0.41-0.25 0.75-0.8 0.75-0.55 0-0.77 0.45-0.5 1 0.28 0.55 0.05 1-0.5 1-0.55 0-0.77 0.45-0.5 1 0.28 0.55 0.16 1.11-0.25 1.25-0.41 0.14-1.54 1.94-2.5 4-1.14 2.45-1.32 3.52-0.5 3.08 0.69-0.37 0.49 0.19-0.43 1.25-0.92 1.06-2.16 3.16-2.75 4.67-0.68 1.75-0.7 2.57-0.07 2.25 0.55-0.27 1-1.18 1-2 0-0.83 0.45-1.27 1-1 0.59 0.3 0.72-0.21 0.31-1.25-0.62-1.59-0.51-1.61 1.19-0.25 1.04 0.82 1.6 1.05 1.26 0.5-0.35-0.57 1.41-1.5 4.06-2.15 2.57-0.64 7.16-1.68 10.18-2.33 5.18-1.1 5.66-1.47 8.37-6.35 1.57-2.84 5.03-9.44 7.68-14.67 2.65-5.23 11.34-22.77 19.32-39 7.98-16.23 15.2-30.63 16.05-32 0.84-1.38 5.65-10.15 10.68-19.5 5.03-9.35 13.01-23.53 17.74-31.5 4.72-7.98 17.72-28.23 28.89-45 16.81-25.26 20.08-30.74 19.03-31.91-1-1.13-1.01-1.48-0.01-1.75 1-0.27 1-0.65 0-1.87-1.08-1.31-0.9-1.44 1.25-0.91 1.84 0.45 2.11 0.36 1-0.36-1.22-0.8-1.24-1.05-0.13-1.34 0.75-0.2-0.83-1.58-3.5-3.08-2.68-1.49-5.36-2.73-5.95-2.75-0.6-0.02-2.17 1.13-3.5 2.55zm-215.92 184.17c5.78 0.17 15.68 0.17 22 0 6.33-0.18 1.6-0.32-10.5-0.32-12.1 0-17.27 0.14-11.5 0.32z"/>
			<path id="Path 18" fill-rule="evenodd" class="s17" d="m275.6 831.87c-4.87 5.16-8.48 10.2-11.15 15.58-3.76 7.55-3.95 8.39-3.87 17 0.05 5.99 0.61 10.23 1.67 12.55 0.87 1.92 2.89 5.3 4.5 7.5 1.6 2.2 6.02 6.54 9.83 9.65 3.81 3.11 11.19 7.92 16.42 10.69 5.22 2.77 14.45 7.03 20.5 9.45 6.05 2.43 15.5 5.8 21 7.49 5.5 1.69 12.7 3.78 16 4.63 3.3 0.86 6.45 1.56 7 1.56 0.55 0 0.32-0.44-0.5-0.97-1.19-0.77-0.98-0.98 1-1 1.46-0.02 2.02-0.34 1.34-0.77-0.64-0.4 0.71-0.84 3-0.97 2.29-0.13 4.59-0.69 5.11-1.25 0.52-0.55 2.66-1.01 4.75-1.01 2.2 0 3.59-0.42 3.3-1-0.28-0.55 0.4-1 1.5-1 1.1 0 2-0.45 2-1 0-0.55 1.69-1.69 3.75-2.53 2.45-0.99 5.82-1.38 9.75-1.11 3.3 0.22 6.67 0.67 7.5 0.99 0.82 0.32 3.07 0.24 5-0.17 3-0.64 1.36-1.15-11.5-3.56-8.25-1.54-18.38-3.47-22.5-4.28-4.13-0.82-9.53-1.59-12-1.72-2.48-0.12-5.06-0.54-5.75-0.92-0.69-0.39-1.25-0.25-1.25 0.3q0 1-3 0c-1.65-0.55-3.23-1-3.5-1-0.28 0-1.96-0.27-3.75-0.59-2.57-0.47-2.94-0.8-1.75-1.58 1.1-0.73 0.77-0.84-1.25-0.41-1.68 0.35-2.55 0.19-2.25-0.42 0.27-0.55-0.4-1.23-1.5-1.5-1.1-0.27-2-0.05-2 0.5 0 0.55-0.9 0.77-2 0.5-1.1-0.27-1.82-0.84-1.6-1.25 0.22-0.41-1.46-0.89-3.75-1.05-2.28-0.17-4.83-0.95-5.65-1.73-0.83-0.78-2.29-1.43-3.25-1.44-0.96-0.02-2.43-0.7-3.25-1.53-0.83-0.83-1.32-1.84-1.1-2.25 0.23-0.41-0.9-0.86-2.5-1-1.59-0.14-3.8-0.36-4.9-0.5-1.1-0.14-1.99-0.7-1.97-1.25 0.01-0.55-0.21-0.66-0.5-0.25-0.29 0.41-1.77-0.35-3.28-1.7-1.51-1.35-3.09-2.25-3.5-2-0.41 0.25-2.57-1.69-4.79-4.3-2.22-2.61-4.29-6.1-4.61-7.75-0.32-1.65-0.31-4.24 0.03-5.75 0.34-1.51 2.31-4.6 4.37-6.87 2.06-2.27 5.44-4.97 7.5-6 2.06-1.03 5.55-1.88 7.75-1.88 2.2 0 6.14 0.72 8.75 1.59 2.61 0.88 8.01 3.13 12 5 5.66 2.66 7.69 3.19 9.25 2.41q2-1 2 0c0 0.55 1.35 1.45 3 2 1.65 0.55 3.67 1.67 4.5 2.5 0.97 0.97 2.83 1.37 5.25 1.13 2.06-0.2 5.1 0.24 6.75 0.97 1.65 0.74 3.35 1.02 3.78 0.62 0.43-0.39 0.76-0.16 0.75 0.53-0.02 0.69 1.54 1.7 3.47 2.25 2.6 0.74 3.24 1.32 2.51 2.25-0.55 0.69-0.66 1.6-0.25 2.03 0.41 0.43 1.64 0.72 2.74 0.65 1.67-0.11 1.59-0.26-0.5-0.93l-2.5-0.8c3.87-0.22 5.56 0.29 6.24 1.01 0.69 0.71 0.91 1.7 0.5 2.2-0.42 0.52 0.01 0.63 1.01 0.25 0.96-0.36 1.92-0.32 2.13 0.09 0.2 0.41 3.35 1.31 7 2 3.64 0.69 6.96 1.3 7.37 1.37 0.41 0.07 1.76 0.52 3 1 1.4 0.55 2.44 0.5 2.75-0.12 0.27-0.55-0.29-1.04-1.25-1.08-0.96-0.04-1.19-0.27-0.5-0.5 0.69-0.23 2.26 0.12 3.5 0.78 1.24 0.66 3.37 1.12 4.75 1.02 2.24-0.17 2.29-0.1 0.5 0.68-1.89 0.82-1.86 0.91 0.5 1.5 1.37 0.35 4.58 0.96 7.13 1.36 2.55 0.41 4.46 0.4 4.25-0.01-0.21-0.41 0.63-1.93 1.87-3.37 2.09-2.44 2.37-2.51 4-1 1.43 1.32 2.05 1.39 3.37 0.37 1.29-1 3.64-0.95 11.91 0.25 5.67 0.83 10.16 1.73 9.99 2-0.17 0.27 0.88 0.35 2.34 0.17 1.45-0.19 4.21 0.11 6.14 0.65 2.53 0.72 2.88 1.02 1.25 1.09-1.54 0.06-2.09 0.57-1.75 1.59 0.31 0.94-0.15 1.53-1.25 1.57-1.5 0.06-1.46 0.2 0.25 0.93 1.1 0.47 3.8 0.94 6 1.03 3.39 0.14 3.62 0.28 1.5 0.88-1.54 0.44 4 1.22 14.5 2.03 9.35 0.73 21.16 1.04 26.25 0.69 6.04-0.41 9.08-0.28 8.75 0.37-0.33 0.66 9.3 0.88 28.25 0.65 15.81-0.19 33.92-0.72 40.25-1.17 6.33-0.45 15.1-0.82 19.5-0.83 6.7-0.01 8.65 0.38 12 2.41 2.84 1.71 3.49 2.49 2.25 2.68-0.96 0.14-1.75 0.71-1.75 1.26 0 0.55 0.67 1 1.5 1 0.84 0 1.9 1.43 2.41 3.25 0.5 1.79 0.95 2.69 1 2 0.05-0.69 0.54-1.25 1.09-1.25 0.62 0 0.75 1.82 0.36 4.75-0.35 2.61-0.85 4.98-1.11 5.25-0.25 0.27-2.1 0.79-4.11 1.14l-3.64 0.63c5.42 0.19 7.9-0.38 9-1.14 1.1-0.77 2.34-1.45 2.75-1.51 0.41-0.07 3.11-0.39 6-0.73 2.89-0.33 4.69-0.9 4.01-1.25-0.91-0.47-0.64-1.52 1-3.96 2.05-3.03 2.76-3.35 8.24-3.72 3.3-0.22 7.8-1.05 10-1.84 2.2-0.79 7.37-2.18 11.5-3.08 4.12-0.9 8.17-2.07 9-2.59 1.33-0.84 1.33-1.05 0-1.84-0.83-0.49-1.16-1.39-0.75-2 0.52-0.77-0.86-1.1-4.5-1.09-2.89 0.01-6.71-0.44-8.5-1-1.79-0.56-3.23-1.58-3.21-2.27 0.02-0.69 0.81-1.77 1.75-2.41 1.44-0.99 1.24-1.1-1.29-0.74-2.32 0.33-2.55 0.24-1-0.42 1.74-0.75 1.55-0.95-1.5-1.6-3.05-0.65-3.24-0.86-1.5-1.59 1.18-0.5-5.6-0.82-16.5-0.77-10.17 0.04-16.48 0.36-14 0.71 4.3 0.6 4.14 0.66-3.5 1.45-4.4 0.45-8.63 1.34-9.39 1.97-1.15 0.95-0.97 1.27 1 1.8 1.93 0.53 1.67 0.67-1.36 0.75-2.06 0.06-3.75-0.35-3.75-0.9 0-0.55-0.79-1.17-1.75-1.38-0.96-0.22-0.29-0.44 1.5-0.5 3.17-0.12 3.21-0.17 1.5-2.13-0.96-1.1-2.31-2-3-2-0.69 0.01-1.25 0.46-1.25 1.01 0 0.55-0.67 0.77-1.5 0.5-0.83-0.27-1.5-0.05-1.5 0.5 0 0.55-0.67 0.77-1.5 0.5-0.83-0.27-1.27-0.95-1-1.5 0.27-0.55-0.63-1-2-1-1.38 0-3.29-0.28-4.25-0.63-1.51-0.54-1.55-0.75-0.25-1.57q1.51-0.94-3-0.36c-2.48 0.33-11.25 1.27-19.5 2.1-8.25 0.83-25.8 1.78-39 2.12-14.56 0.37-31.47 0.14-43-0.57-10.45-0.66-27.1-2.09-37-3.19-9.9-1.11-26.33-3.57-36.5-5.48-10.18-1.91-24.35-5.06-31.5-7-7.15-1.94-19.75-5.85-28-8.69-8.25-2.84-22.43-8.82-31.5-13.3-9.08-4.47-20.93-11.07-26.35-14.66l-9.85-6.53zm263.4 91.86c1.93 0.22 5.3 0.22 7.5 0 2.2-0.21 0.63-0.39-3.5-0.39-4.12 0-5.92 0.18-4 0.39z"/>
			<path id="Path 19" fill-rule="evenodd" class="s18" d="m637.67 361c-4.32 10.16-4.39 10.51-2.32 10.81 1.18 0.16 5.07-0.67 8.65-1.85 3.58-1.19 8.3-3.2 10.5-4.47 2.2-1.27 4.53-2.92 5.17-3.65 0.65-0.74 1.32-3.25 1.5-5.58 0.18-2.33-0.12-4.3-0.67-4.38-0.55-0.07-2.12-0.32-3.5-0.54-1.37-0.23-5.28-0.51-8.69-0.62l-6.18-0.22zm-174.17 3.02c-6.05 0.47-16.62 1.58-23.5 2.46-6.87 0.88-19.25 2.96-27.5 4.62-8.25 1.66-15.45 3.14-16 3.29-0.55 0.15 2.38 1.04 6.5 1.97 4.13 0.93 13.35 2.55 20.5 3.58 7.15 1.04 19.08 2.37 26.5 2.94 7.43 0.58 19.35 1.31 26.5 1.62 7.15 0.32 25.15 0.59 40 0.61 14.85 0.02 29.25-0.25 32-0.6l5-0.64 9.06-20.37c-68.25-0.26-93.01 0.05-99.06 0.52zm251.96 76.34c-3.87 2.28-13.09 6.56-20.5 9.52-7.4 2.96-13.91 5.79-14.46 6.29-0.55 0.5 0.5 0.33 2.34-0.38 2.85-1.1 3.47-1.07 4.23 0.21 0.5 0.82 0.91 3.19 0.92 5.25 0 2.06 0.69 4.43 1.51 5.25 0.83 0.82 1.84 1.5 2.25 1.49 0.41 0 2.55-0.49 4.75-1.08 2.2-0.59 8.05-2.86 13-5.04 4.95-2.18 11.81-5.29 15.25-6.92 3.44-1.62 6.93-2.72 7.75-2.45 0.83 0.27-1.09-2.96-4.25-7.19-3.16-4.24-5.68-8.06-5.6-8.5 0.08-0.45 0.08-0.76 0-0.7-0.08 0.06-3.32 1.97-7.19 4.25zm8.04 380.79c-4.4 2.73-8.22 5.23-8.5 5.54-0.27 0.31 1.08-0.24 3-1.23 1.93-0.98 5.86-3.29 8.75-5.12 2.89-1.84 5.25-3.57 5.25-3.84 0-0.28-0.11-0.46-0.25-0.42-0.14 0.05-3.85 2.33-8.25 5.07zm-217.5 51.59c3.58 0.2 8.98 0.19 12 0 3.03-0.2 0.1-0.36-6.5-0.36-6.6 0-9.07 0.17-5.5 0.36z"/>
			<path id="Path 20" fill-rule="evenodd" class="s3" d="m497.5 396.75c6.05 0.17 16.17 0.17 22.5 0 6.33-0.18 1.38-0.32-11-0.32-12.38 0-17.55 0.14-11.5 0.32z"/>
			<path id="Path 21" fill-rule="evenodd" class="s0" d="m352.07 425.36c-1.88 0.7-4.03 2.14-4.76 3.21-0.74 1.06-1.44 3.37-1.57 5.13-0.19 2.5 0.52 3.96 3.26 6.69 2.18 2.17 4.35 3.41 5.75 3.3 1.24-0.11 2.25-0.53 2.25-0.94 0-0.41 1.57-2.33 3.5-4.25 1.93-1.93 3.5-4.18 3.5-5 0-0.83-1.69-3.29-3.75-5.47-2.06-2.18-3.98-3.96-4.25-3.96-0.27 0-2.04 0.58-3.93 1.29z"/>
			<path id="Path 22" fill-rule="evenodd" class="s6" d="m374.87 353.84c0.06 0.36 1.46 1.45 3.12 2.41 1.65 0.96 3.35 1.76 3.76 1.78 0.41 0.02-0.15-0.88-1.25-2-1.1-1.11-2.84-2.21-3.87-2.44-1.03-0.22-1.83-0.11-1.76 0.25zm25.71 121.75c-0.5 0.41-0.85 1.01-0.77 1.33 0.09 0.32 2.07 0.92 4.42 1.34 2.35 0.41 4.04 0.91 3.77 1.11-0.27 0.2-2.19 0.65-4.25 1-3.2 0.54-3.82 0.34-4.25-1.37-0.41-1.63-1.33-2-5-2-2.48 0-4.84 0.5-5.25 1.11-0.41 0.61-0.08 1.48 0.75 1.94 0.82 0.45 1.73 0.64 2 0.43 0.27-0.22 3.99 0.26 8.25 1.06 4.26 0.8 8.31 1.45 9 1.44q1.22-0.02-0.25-0.88c-1.2-0.69-0.99-0.99 1-1.47 1.37-0.33 3.06-0.61 3.75-0.62 0.69 0 1.02 0.44 0.75 0.99-0.3 0.61 1.56 0.97 4.75 0.91 4.76-0.07 4.97-0.17 2.25-1-1.65-0.51-3.23-1.27-3.5-1.7-0.27-0.43-2.98-1.35-6-2.04-3.02-0.69-6.63-1.5-8-1.79-1.38-0.3-2.91-0.2-3.42 0.21z"/>
			<path id="Path 23" fill-rule="evenodd" class="s7" d="m713.94 555.93c-0.62 1.07-1.08 3.21-1.03 4.75 0.06 1.55 0.91 4.17 1.9 5.82 1 1.65 3.47 3.79 5.5 4.75 2.93 1.39 4.41 1.54 7.19 0.75 2.69-0.77 3.99-1.99 5.59-5.25 1.25-2.53 1.86-5.16 1.5-6.5-0.32-1.24-1.49-2.47-2.59-2.75-1.1-0.27-3.69-0.05-5.75 0.5-3.42 0.91-3.9 0.78-5.5-1.5-0.96-1.38-2.64-2.5-3.72-2.5-1.09 0-2.48 0.87-3.09 1.93zm-34.94 11.39c-1.93 0.68-5.75 2.53-8.5 4.11-2.75 1.58-8.6 5.59-13 8.91-4.4 3.31-11.15 8.53-15 11.59-3.84 3.07-11.43 9.85-16.86 15.07-5.42 5.23-10.3 10.4-10.83 11.5-0.64 1.31-0.63 2.34 0.04 3 0.68 0.67 3-0.98 7.06-5 4.3-4.26 5.69-6.24 4.82-6.84q-1.18-0.83 0.52-0.25c1.07 0.36 2.72-0.29 4.22-1.66 1.36-1.24 2.15-2.7 1.76-3.25-0.42-0.6-0.21-0.7 0.53-0.25 0.77 0.47 5.3-2.33 11.99-7.41 6.34-4.81 14.65-9.99 20.25-12.63 5.22-2.46 11.3-5.1 13.5-5.88 2.2-0.77 5.69-2.52 7.75-3.87 2.26-1.48 3.75-3.25 3.75-4.46 0-1.1-0.9-2.45-2-3-1.1-0.55-3.01-0.98-4.25-0.96-1.24 0.03-3.83 0.6-5.75 1.28zm-294.5 13.05c-1.1 0.76-3.08 3.57-4.4 6.26-2.01 4.08-2.33 5.92-1.93 11.37 0.27 3.75 1.4 8.41 2.65 11 1.2 2.48 3.42 5.9 4.93 7.61 1.51 1.71 4.32 4.07 6.25 5.24 1.92 1.18 4.51 2.14 5.75 2.15 1.24 0 2.92-0.22 3.75-0.5 0.82-0.27 1.98-2.41 2.56-4.75 0.75-3 0.75-6.39 0-11.5-0.58-3.99-1.78-9.39-2.66-12-0.88-2.61-2.41-6.1-3.39-7.75-0.98-1.65-3.18-4.24-4.89-5.75-1.72-1.51-3.91-2.75-4.87-2.76-0.96 0-2.65 0.62-3.75 1.38zm314.55 10.74c-0.8 0.71-1.36 2.32-1.25 3.59 0.11 1.27 2.56 4.67 5.45 7.57 2.89 2.9 7.95 6.58 11.25 8.19 3.3 1.61 7.86 3.17 10.13 3.48 2.91 0.39 4.63 0.12 5.8-0.94 0.91-0.82 1.64-2.51 1.61-3.75-0.02-1.27-2.17-4.54-4.92-7.5-2.76-2.96-7.45-6.53-10.75-8.19-3.36-1.69-8.01-3.12-10.87-3.34-3.17-0.25-5.53 0.08-6.45 0.89zm-412.57 8.64c0.41 3.16 1.42 8 2.23 10.75 0.82 2.75 3.46 8.83 5.86 13.5 2.5 4.85 6.64 10.87 9.65 14.02 2.91 3.04 7.98 7.36 11.28 9.61 3.3 2.25 7.8 5 10 6.12 2.2 1.12 6.47 2.76 9.5 3.64 3.02 0.89 9.1 2.1 13.5 2.69 5.86 0.78 10.81 0.76 18.5-0.1 5.77-0.65 13.42-1.81 17-2.6 3.57-0.78 7.62-1.67 9-1.97 1.37-0.3 2.58-0.63 2.68-0.73 0.1-0.1-3.72-0.51-8.5-0.9-4.77-0.4-13.86-1.61-20.18-2.7-6.33-1.09-14.43-2.88-18-3.98-3.6-1.11-10.03-4.36-14.42-7.3-4.36-2.91-9.66-7.32-11.78-9.8-2.13-2.47-3.86-4.95-3.85-5.5 0.01-0.63 1.59-0.72 4.28-0.23 2.35 0.42 7.19 2.26 10.77 4.1 3.57 1.84 11 5.66 16.5 8.5 7.71 3.99 11.03 5.17 14.5 5.17l4.5-0.01c-1.14-6.61-2.94-10.74-4.74-13.45-1.79-2.7-6.43-7.88-10.31-11.5-4.51-4.21-10.26-8.25-16-11.23-4.92-2.56-12.33-5.64-16.45-6.85-4.13-1.21-11.1-2.83-15.5-3.6-4.4-0.77-10.87-1.4-14.38-1.4h-6.38zm15.51 74.24c-3.02 1.06-6.62 2.77-8 3.82-1.58 1.19-2.59 3.05-2.75 5.04-0.17 2.21 0.42 3.76 2 5.2 1.24 1.13 4.73 2.76 7.75 3.64 4.14 1.19 7.98 1.45 15.5 1.02 6.23-0.35 12.46-1.38 16.5-2.72 3.58-1.2 8.66-3.37 11.28-4.83 2.63-1.46 4.78-3.11 4.78-3.66 0-0.55-2.37-2.21-5.28-3.69-2.9-1.47-7.75-3.39-10.78-4.26-3.42-0.98-9.27-1.55-15.5-1.53-7.2 0.03-11.53 0.58-15.5 1.97zm116.51 11.66c-1.32 1.45-2.43 3.81-2.46 5.25-0.03 1.43 0.62 3.61 1.45 4.85 0.89 1.33 2.52 2.25 4 2.25 1.45 0 3.57-1.16 5.04-2.75 1.65-1.8 2.52-3.88 2.5-6-0.02-1.79-0.71-3.92-1.54-4.75-0.82-0.82-2.64-1.5-4.04-1.5-1.48 0-3.55 1.11-4.95 2.65z"/>
			<path id="Path 24" fill-rule="evenodd" class="s19" d="m497.63 546.81c-2.68 0.93-6.74 3.49-9.02 5.69-2.28 2.2-5.24 6.25-6.57 9-2.03 4.16-2.44 6.56-2.49 14.3-0.05 8.8-0.16 9.27-2.05 8.76-1.1-0.3-4.93-0.83-8.5-1.16-3.57-0.34-9.2-0.11-12.5 0.5-3.3 0.61-8.48 2.33-11.5 3.82-3.02 1.48-7.07 4.11-9 5.83-1.93 1.73-4.56 5.35-5.86 8.04-1.91 3.96-2.28 6.07-1.93 10.91 0.23 3.3 1.37 8.03 2.53 10.5 1.16 2.48 3.6 5.9 5.43 7.61 1.83 1.7 5.35 4.46 7.83 6.13 2.48 1.67 7.88 4.05 12 5.29 4.13 1.24 7.73 2.4 8 2.57 0.27 0.18-3.1 4.11-7.5 8.74-5.6 5.88-8.53 9.87-9.75 13.28-0.97 2.69-1.76 6.68-1.77 8.88 0 2.4 1.1 6.19 2.76 9.46 1.66 3.28 4.36 6.62 6.76 8.37 2.2 1.61 6.02 3.82 8.5 4.92 3.61 1.6 6.08 1.92 12.5 1.61 5.95-0.29 9.27-1.03 12.98-2.88 2.74-1.36 7.24-4.61 10-7.22 2.76-2.6 5.07-4.63 5.12-4.5 0.06 0.13 0.59 2.27 1.18 4.74 0.6 2.48 2.5 6.98 4.23 10 1.77 3.08 5.19 7.04 7.79 9 2.55 1.93 6.23 4.04 8.17 4.71 1.94 0.66 6.68 1.22 10.53 1.24 5.27 0.02 8.24-0.54 12-2.29 2.75-1.27 6.58-3.67 8.5-5.33 1.92-1.66 4.6-5.45 5.93-8.43 1.74-3.85 2.46-7.27 2.5-11.9 0.04-3.57-0.35-7.85-0.87-9.5l-0.94-3c5.33 1.55 11.15 1.95 16.38 1.89 7.18-0.09 10.84-0.65 15-2.29 3.02-1.19 7.36-3.61 9.63-5.38 2.27-1.77 5.08-4.91 6.25-6.97 1.16-2.06 2.37-5.44 2.68-7.5 0.31-2.06-0.07-5.77-0.83-8.25-0.76-2.47-2.51-6.3-3.88-8.5-1.49-2.39-5.27-5.84-9.42-8.57-3.81-2.52-8.89-5.22-11.3-6-2.4-0.79-4.53-1.65-4.73-1.93-0.2-0.27 1.77-2.82 4.37-5.66 2.6-2.84 5.18-5.77 5.73-6.51 0.55-0.74 2.08-3.36 3.41-5.84 1.34-2.5 2.61-6.93 2.88-9.99 0.29-3.25-0.06-7.13-0.86-9.5-0.74-2.2-2.49-5.3-3.89-6.89-1.39-1.59-5.24-4.24-8.54-5.89-5.11-2.56-7.19-3.01-14-3.07-5.3-0.05-9.85 0.55-13.5 1.78-3.02 1.02-8.2 3.17-11.5 4.79-4.69 2.3-6.15 2.65-6.7 1.61-0.38-0.73-0.99-2.9-1.35-4.83-0.35-1.92-1.46-5.07-2.45-7-0.99-1.92-3.76-5.55-6.15-8.06-2.39-2.51-6.37-5.53-8.85-6.72-2.48-1.19-6.98-2.63-10-3.2-3.02-0.57-6.18-1.01-7-0.97-0.82 0.04-3.69 0.83-6.37 1.76z"/>
			<path id="Path 25" fill-rule="evenodd" class="s8" d="m400 479.5c0 1.03 0.7 1.35 2.25 1.01 1.24-0.26 3.15-0.52 4.25-0.57l2-0.08c-3.1-1.33-5.01-1.75-6.25-1.79-1.36-0.04-2.25 0.52-2.25 1.43z"/>
			<path id="Path 26" fill-rule="evenodd" class="s10" d="m622.04 541.33c-2.33 1.67-3.41 3.35-3.73 5.76-0.25 1.88 0.06 5.43 0.69 7.91 0.63 2.47 2.68 7.76 4.57 11.75 1.89 3.99 3.43 7.7 3.43 8.25 0 0.55 1.07 3.14 2.38 5.75 1.3 2.61 3.1 5.31 4 6 1.39 1.07 2.4 0.42 7.04-4.5 2.99-3.16 7.52-8.9 10.07-12.75 2.55-3.85 5.56-9.03 6.69-11.5 1.13-2.48 2.36-6.3 2.75-8.5 0.46-2.65 0.25-4.76-0.62-6.25-0.96-1.65-2.24-2.25-4.81-2.25-2.65 0-4 0.66-5.55 2.75-1.13 1.51-3.27 5.78-4.75 9.49-1.49 3.7-2.92 6.74-3.2 6.75-0.27 0.01-1.03-1.22-1.67-2.74-0.64-1.51-2.1-5-3.23-7.75-1.13-2.75-3.08-5.96-4.33-7.14-1.25-1.17-3.21-2.41-4.35-2.76-1.37-0.41-3.22 0.18-5.38 1.73zm34.21 68.7c-1.79 0.53-5.84 2.36-9 4.06-3.16 1.7-7.46 4.74-9.56 6.75-2.09 2.01-4.42 4.78-5.18 6.16-0.75 1.37-2.39 4.52-3.63 7-1.81 3.59-2.35 6.62-2.67 15l-0.4 10.5c4.89 6.2 7.52 8.52 9 9.16 2.04 0.87 3 0.87 3.98 0 0.72-0.64 1.28-1.72 1.25-2.41-0.02-0.69 0.4-1.36 0.93-1.5 0.53-0.14 1.05-2.95 1.16-6.25 0.11-3.3-0.1-7.91-0.46-10.25-0.4-2.52-0.26-4.45 0.33-4.75 0.55-0.28 1.8 0.29 2.78 1.25 0.98 0.96 3.8 3.1 6.25 4.75 2.46 1.65 4.58 3.34 4.72 3.75 0.14 0.41 2.16 1.59 4.5 2.61 2.34 1.03 6.73 2.61 9.75 3.52 3.03 0.92 6.4 1.64 7.5 1.62 1.1-0.02 3.91-0.93 6.25-2.02 2.59-1.21 4.26-2.66 4.28-3.73 0.02-0.96-1.1-2.99-2.5-4.5-1.39-1.51-2.53-3.2-2.53-3.75 0-0.55-2.09-2.91-4.64-5.25-2.56-2.34-5.72-5.38-7.03-6.75-1.76-1.83-2.05-2.67-1.11-3.13 0.7-0.35 3.08-0.23 5.28 0.26 2.2 0.49 6.48 1.3 9.5 1.79 3.03 0.49 8.42 0.54 12 0.11 4.78-0.58 6.96-1.34 8.25-2.91 1.31-1.59 1.54-2.81 0.9-4.87-0.46-1.51-1.36-3.76-2-5-0.63-1.24-1.6-2.03-2.15-1.75-0.55 0.27-1.21-0.06-1.48-0.75-0.26-0.69-4.19-3.03-8.75-5.21-8.06-3.86-8.58-3.97-20.27-4.22-6.6-0.14-13.46 0.18-15.25 0.71zm-243.75 47.92c-2.75 1.03-6.57 2.47-8.5 3.2-1.92 0.72-6.2 3.09-9.5 5.26-3.3 2.18-6.11 4.32-6.25 4.77-0.14 0.45-0.7 0.82-1.25 0.82-0.55 0-4.94 2.99-9.75 6.64-4.81 3.66-9.09 7.26-9.5 8-0.41 0.75-1.2 1.36-1.75 1.36-0.55 0-3.14 2.3-5.75 5.12-2.61 2.81-5.25 6.3-5.85 7.75-0.93 2.22-0.77 2.99 1 4.9 1.15 1.25 3.11 2.27 4.35 2.25 1.24-0.01 4.95-0.92 8.25-2.02 3.3-1.1 9.26-4.1 13.25-6.67 3.99-2.56 9.5-6.47 12.25-8.69 2.75-2.21 6.35-5.27 8-6.81 1.65-1.53 7.17-6.96 12.26-12.06 5.1-5.1 9.26-10.06 9.25-11.02 0-0.96-0.68-2.43-1.51-3.25-0.82-0.83-2.06-1.48-2.75-1.46-0.69 0.02-3.5 0.88-6.25 1.91zm-12.5 222.55c0 1.08 1.11 1.5 4 1.5 2.33 0 3.79 0.42 3.5 1-0.27 0.55 0.06 1.33 0.75 1.74q1.24 0.73 0.5-0.5c-0.42-0.7-0.2-1.4 0.5-1.6 0.69-0.2 0.88-0.77 0.42-1.25-0.45-0.49-2.48-0.81-4.5-0.72-3.17 0.16-3.33 0.07-1.17-0.65 2.38-0.78 2.35-0.83-0.75-0.92-2.27-0.07-3.25 0.35-3.25 1.4z"/>
			<path id="Path 27" fill-rule="evenodd" class="s12" d="m327.12 500.77c-1.86 0.95-3.77 2.52-4.25 3.48-0.48 0.96-1.32 1.75-1.87 1.75-0.55 0-0.99-0.79-0.98-1.75 0.01-1.1-0.31-1.38-0.87-0.75-0.49 0.55-1.17 2.46-1.52 4.25-0.42 2.15-0.21 3.47 0.62 3.9 0.94 0.49 0.86 0.92-0.34 1.75-0.87 0.61-3.12 4.15-5 7.87-1.87 3.72-3.97 6.76-4.66 6.75-0.69-0.01-1.54 0.99-1.89 2.23l-0.64 2.25c-1.59-4.53-1.99-4.75-2.99-3.7-0.68 0.72-1.23 3.19-1.23 5.5 0 2.31-0.45 4.34-1 4.52-0.55 0.18-1.34 0.97-1.75 1.75-0.41 0.79-0.3 2.1 0.25 2.93 0.55 0.83 0.83 2.74 0.62 4.25-0.22 1.51 0.46 4.66 1.5 7 1.03 2.34 2.33 4.25 2.88 4.25 0.55 0 0.89 0.51 0.75 1.14-0.14 0.62 1.1 1.52 2.75 1.99 1.65 0.46 6.6 0.87 11 0.9 4.4 0.02 8.9-0.05 10-0.17 1.1-0.11 3.03-1.14 4.28-2.29 1.33-1.2 2.37-3.42 2.5-5.31 0.12-1.79 0.78-3.47 1.47-3.75 0.69-0.28 1.25-1.3 1.25-2.26-0.01-0.96 0.89-3.44 2-5.5 1.1-2.06 1.92-4.99 1.82-6.5-0.1-1.51 1.55-6.58 3.67-11.25 2.12-4.67 4.06-10.52 4.31-13 0.3-2.96-0.1-5.61-1.17-7.75-0.97-1.94-3.04-3.86-5.13-4.75-1.93-0.82-5.64-1.49-8.25-1.48-2.61 0.02-6.27 0.8-8.13 1.75zm159.67 51.98c-1.42 1.51-3.53 4.33-4.68 6.25-1.16 1.92-2.09 4.17-2.08 5 0.01 0.83 0.83-0.3 1.82-2.5 0.99-2.2 3.26-5.69 5.04-7.75 1.79-2.06 3.07-3.75 2.86-3.75-0.21 0-1.55 1.24-2.96 2.75zm-191.41-1.02c-0.39 0.33-0.64 1.43-0.55 2.44 0.1 1 0.85 1.83 1.67 1.83 0.82 0 1.67-0.56 1.88-1.25 0.2-0.69-0.23-1.79-0.96-2.44-0.73-0.65-1.65-0.92-2.04-0.58zm146.12 36.47c-1.65 1.17-4.92 3.97-7.26 6.22-2.35 2.24-4.26 4.42-4.25 4.83 0 0.41 1.47-0.89 3.26-2.9 1.79-2.01 5.5-5.16 8.25-7.01 2.75-1.84 4.55-3.33 4-3.31-0.55 0.02-2.35 0.99-4 2.17zm162.36 80.39c-0.75 0.88-4.06 2.93-7.36 4.55-3.3 1.63-4.88 2.67-3.5 2.31 1.37-0.36 4.3-1.68 6.5-2.93 2.2-1.25 4.59-3.01 5.32-3.9 0.73-0.89 1.11-1.62 0.86-1.62-0.25 0-1.07 0.72-1.82 1.59zm-30.86 9.14c1.92 0.21 5.3 0.21 7.5 0 2.2-0.22 0.62-0.39-3.5-0.39-4.13 0-5.92 0.17-4 0.39zm-11.02 21.49c-0.79 1.8-3 5.08-4.92 7.28l-3.49 4c5.13-4.65 7.47-7.69 8.52-9.75 1.05-2.06 1.78-3.99 1.62-4.28-0.17-0.29-0.94 0.94-1.73 2.75zm-30.98 16.51c1.92 0.21 5.3 0.21 7.5 0 2.2-0.22 0.62-0.39-3.5-0.39-4.13 0-5.92 0.17-4 0.39z"/>
			<path id="Path 28" fill-rule="evenodd" class="s15" d="m594.5 889.45c0.55 0.26 4.15 0.88 8 1.38 3.85 0.5 7.9 0.54 9 0.1 1.69-0.68 1.53-0.81-1-0.87-1.65-0.04-6.15-0.3-10-0.58-3.85-0.27-6.55-0.29-6-0.03z"/>
			<path id="Path 29" fill-rule="evenodd" class="s16" d="m632.11 541.19c-0.04 0.17 1.27 3.01 2.93 6.31 1.65 3.3 3 5.44 2.98 4.75-0.01-0.69-0.92-3.28-2.02-5.75-1.1-2.48-2.4-4.75-2.9-5.06-0.49-0.31-0.94-0.42-0.99-0.25zm25.69 67.63c-0.94 0.37 2.89 0.55 8.5 0.38 5.61-0.16 11.1-0.43 12.2-0.61 1.1-0.17-2.73-0.35-8.5-0.38-5.77-0.04-11.27 0.24-12.2 0.61zm-21.84 11.66c-2.45 2.46-4.23 4.65-3.96 4.86 0.27 0.21 2.75-1.81 5.5-4.48 2.75-2.67 4.53-4.86 3.96-4.86-0.58 0-3.05 2.02-5.5 4.48zm36.54 15.52c2.2 2.22 4.11 4.02 4.25 4.02 0.14-0.01-0.2-0.92-0.75-2.02-0.55-1.1-1.45-2-2-2-0.55 0-0.77-0.9-0.5-2 0.41-1.63 0-2-2.25-2.02l-2.75-0.01zm-301.42 46.07c-4.55 3.33-8.23 6.26-8.18 6.5 0.06 0.23 0.66 0.13 1.35-0.24 0.69-0.37 4.18-2.92 7.75-5.68 3.57-2.75 6.93-5.38 7.45-5.83 0.52-0.45 0.71-0.82 0.43-0.82-0.29 0-4.25 2.73-8.8 6.07zm-16.87 17.13c-1.2 2.36-2.19 4.86-2.2 5.55 0 0.69 1 1.76 2.24 2.39l2.25 1.15-4-4.26c3.44-6.61 4.31-8.67 4.16-8.83-0.15-0.17-1.26 1.63-2.45 4z"/>
			<path id="Path 30" fill-rule="evenodd" class="s19" d="m649.67 588.1c-1.54 2-1.51 2.09 0.6 1.75 1.21-0.19 2.29-1.14 2.38-2.1 0.1-0.96-0.17-1.75-0.59-1.75-0.42 0-1.49 0.95-2.39 2.1zm-228.67 96.93c-1.32 0.89-1.3 1.16 0.14 2.24 1.08 0.81 1.51 2.26 1.26 4.23-0.35 2.72-0.28 2.67 0.68-0.5 0.79-2.62 1.26-3.12 1.86-2 0.67 1.24 0.92 1.16 1.48-0.5 0.46-1.36 0.1-2.41-1.12-3.27-0.99-0.69-2.02-1.25-2.3-1.23-0.27 0.02-1.17 0.48-2 1.03z"/>
			<path id="Path 31" fill-rule="evenodd" class="s10" d="m506.58 577.5c-0.32 0.83-0.59 3.41-0.59 5.75-0.01 2.34 0.66 6.27 1.49 8.75 0.83 2.48 2.75 6.04 4.26 7.92 2.01 2.49 3.14 3.16 4.18 2.5 1.1-0.72 1.29-2.68 0.89-8.92-0.34-5.05-1.32-9.75-2.67-12.75-1.7-3.76-2.64-4.75-4.56-4.75-1.32 0-2.67 0.67-3 1.5zm50.56 23.44c-1.29 0.45-4.61 3.01-7.38 5.69-2.76 2.68-5.68 6.22-6.48 7.87-0.81 1.65-1.2 4.01-0.88 5.25 0.33 1.24 1.16 2.24 1.85 2.23 0.69-0.01 3.27-1.22 5.75-2.68 2.48-1.45 6.88-4.48 9.79-6.72 2.91-2.25 5.73-5.32 6.25-6.83 0.53-1.51 0.73-3.42 0.46-4.25-0.31-0.94-1.71-1.48-3.75-1.44-1.79 0.04-4.31 0.43-5.61 0.88zm-87.14 11.05c-1.13 0.72-1.24 1.39-0.45 2.73 0.57 0.98 3.95 3.26 7.5 5.07 3.55 1.81 8.25 3.55 10.45 3.87 2.99 0.42 4.31 0.16 5.25-1.05 1.05-1.35 0.73-2.14-2-4.96-2.16-2.23-5.18-3.91-9-5-3.16-0.91-6.76-1.64-8-1.63-1.24 0-2.92 0.44-3.75 0.97zm38 3.6c-2.48 1.41-5.35 3.32-6.39 4.24-1.04 0.92-2.72 3.47-3.73 5.67-1.01 2.2-1.83 6.02-1.83 8.5 0.01 2.91 0.9 6.09 2.5 9 1.55 2.8 4.27 5.63 7.22 7.5 4.11 2.61 5.82 3.04 13.23 3.34 8.29 0.34 8.62 0.26 13.5-3.08 2.75-1.89 6.01-4.97 7.24-6.85 1.24-1.87 2.51-5.43 2.84-7.91 0.32-2.48 0.11-6.3-0.46-8.5-0.62-2.36-2.6-5.52-4.83-7.71-2.09-2.04-5.81-4.41-8.29-5.27-2.48-0.86-7.2-1.55-10.5-1.53-4.56 0.03-7.08 0.65-10.5 2.6zm41 26.41c0 1.1 1.24 2.78 2.75 3.73 1.51 0.95 5.23 2.29 8.25 2.98 3.02 0.69 7.19 1.27 9.25 1.27 2.06 0.01 4.42-0.21 5.25-0.48 0.83-0.27 1.48-1.06 1.46-1.75-0.02-0.69-0.81-1.82-1.75-2.51-0.94-0.7-3.62-2.16-5.96-3.25-3.05-1.43-6.36-1.99-11.75-1.99-6.83 0-7.5 0.18-7.5 2zm-56 9.93c-1.37 0.43-4.04 1.68-5.92 2.78-1.89 1.1-4.69 3.75-6.22 5.89-1.54 2.15-2.82 4.91-2.83 6.15-0.02 1.24 0.53 2.26 1.22 2.28 0.69 0.01 4.4-2.19 8.25-4.9 3.85-2.71 7.79-5.87 8.75-7.03 0.96-1.15 1.76-2.87 1.77-3.82 0.01-0.94-0.55-1.81-1.25-1.92-0.7-0.12-2.39 0.14-3.77 0.57zm33.59 8.32c-0.32 1.51-0.27 4.66 0.12 7 0.39 2.34 1.64 5.6 2.79 7.25 1.14 1.65 2.7 3 3.46 3 0.75 0 1.8-1.35 2.31-3 0.69-2.2 0.52-4.07-0.63-7-0.87-2.2-2.9-5.35-4.52-7l-2.94-3z"/>
		</g>
	</g>
</svg>
